<svg width="390" height="47" viewBox="0 0 390 47" fill="none" xmlns="http://www.w3.org/2000/svg">
<path d="M39.984 16.7151L45.056 5.51509H46.64L51.728 16.7151H50.048L45.52 6.41109H46.16L41.632 16.7151H39.984ZM42.144 13.9151L42.576 12.6351H48.88L49.344 13.9151H42.144ZM56.2806 16.8111C55.4593 16.8111 54.7233 16.6298 54.0726 16.2671C53.4326 15.9044 52.926 15.3978 52.5526 14.7471C52.1793 14.0964 51.9926 13.3391 51.9926 12.4751C51.9926 11.6111 52.1793 10.8591 52.5526 10.2191C52.926 9.56842 53.4326 9.06175 54.0726 8.69909C54.7233 8.33642 55.4593 8.15509 56.2806 8.15509C56.9953 8.15509 57.6406 8.31509 58.2166 8.63509C58.7926 8.95509 59.2513 9.43509 59.5926 10.0751C59.9446 10.7151 60.1206 11.5151 60.1206 12.4751C60.1206 13.4351 59.95 14.2351 59.6086 14.8751C59.278 15.5151 58.8246 16.0004 58.2486 16.3311C57.6726 16.6511 57.0166 16.8111 56.2806 16.8111ZM56.4086 15.4671C56.942 15.4671 57.422 15.3444 57.8486 15.0991C58.286 14.8538 58.6273 14.5071 58.8726 14.0591C59.1286 13.6004 59.2566 13.0724 59.2566 12.4751C59.2566 11.8671 59.1286 11.3444 58.8726 10.9071C58.6273 10.4591 58.286 10.1124 57.8486 9.86709C57.422 9.62175 56.942 9.49909 56.4086 9.49909C55.8646 9.49909 55.3793 9.62175 54.9526 9.86709C54.526 10.1124 54.1846 10.4591 53.9286 10.9071C53.6726 11.3444 53.5446 11.8671 53.5446 12.4751C53.5446 13.0724 53.6726 13.6004 53.9286 14.0591C54.1846 14.5071 54.526 14.8538 54.9526 15.0991C55.3793 15.3444 55.8646 15.4671 56.4086 15.4671ZM59.3046 16.7151V14.4271L59.4006 12.4591L59.2406 10.4911V4.84309H60.7766V16.7151H59.3046ZM66.8669 16.8111C66.0455 16.8111 65.3095 16.6298 64.6589 16.2671C64.0189 15.9044 63.5122 15.3978 63.1389 14.7471C62.7655 14.0964 62.5789 13.3391 62.5789 12.4751C62.5789 11.6111 62.7655 10.8591 63.1389 10.2191C63.5122 9.56842 64.0189 9.06175 64.6589 8.69909C65.3095 8.33642 66.0455 8.15509 66.8669 8.15509C67.5815 8.15509 68.2269 8.31509 68.8029 8.63509C69.3789 8.95509 69.8375 9.43509 70.1789 10.0751C70.5309 10.7151 70.7069 11.5151 70.7069 12.4751C70.7069 13.4351 70.5362 14.2351 70.1949 14.8751C69.8642 15.5151 69.4109 16.0004 68.8349 16.3311C68.2589 16.6511 67.6029 16.8111 66.8669 16.8111ZM66.9949 15.4671C67.5282 15.4671 68.0082 15.3444 68.4349 15.0991C68.8722 14.8538 69.2135 14.5071 69.4589 14.0591C69.7149 13.6004 69.8429 13.0724 69.8429 12.4751C69.8429 11.8671 69.7149 11.3444 69.4589 10.9071C69.2135 10.4591 68.8722 10.1124 68.4349 9.86709C68.0082 9.62175 67.5282 9.49909 66.9949 9.49909C66.4509 9.49909 65.9655 9.62175 65.5389 9.86709C65.1122 10.1124 64.7709 10.4591 64.5149 10.9071C64.2589 11.3444 64.1309 11.8671 64.1309 12.4751C64.1309 13.0724 64.2589 13.6004 64.5149 14.0591C64.7709 14.5071 65.1122 14.8538 65.5389 15.0991C65.9655 15.3444 66.4509 15.4671 66.9949 15.4671ZM69.8909 16.7151V14.4271L69.9869 12.4591L69.8269 10.4911V4.84309H71.3629V16.7151H69.8909ZM73.9491 16.7151V8.23509H75.4211V10.5391L75.2771 9.96309C75.5118 9.37642 75.9065 8.92842 76.4611 8.61909C77.0158 8.30975 77.6985 8.15509 78.5091 8.15509V9.64309C78.4451 9.63242 78.3811 9.62709 78.3171 9.62709C78.2638 9.62709 78.2105 9.62709 78.1571 9.62709C77.3358 9.62709 76.6851 9.87242 76.2051 10.3631C75.7251 10.8538 75.4851 11.5631 75.4851 12.4911V16.7151H73.9491ZM83.7801 16.8111C82.8735 16.8111 82.0735 16.6244 81.3801 16.2511C80.6975 15.8778 80.1641 15.3658 79.7801 14.7151C79.4068 14.0644 79.2201 13.3178 79.2201 12.4751C79.2201 11.6324 79.4015 10.8858 79.7641 10.2351C80.1375 9.58442 80.6441 9.07775 81.2841 8.71509C81.9348 8.34175 82.6655 8.15509 83.4761 8.15509C84.2975 8.15509 85.0228 8.33642 85.6521 8.69909C86.2815 9.06175 86.7721 9.57375 87.1241 10.2351C87.4868 10.8858 87.6681 11.6484 87.6681 12.5231C87.6681 12.5871 87.6628 12.6618 87.6521 12.7471C87.6521 12.8324 87.6468 12.9124 87.6361 12.9871H80.4201V11.8831H86.8361L86.2121 12.2671C86.2228 11.7231 86.1108 11.2378 85.8761 10.8111C85.6415 10.3844 85.3161 10.0538 84.9001 9.81909C84.4948 9.57375 84.0201 9.45109 83.4761 9.45109C82.9428 9.45109 82.4681 9.57375 82.0521 9.81909C81.6361 10.0538 81.3108 10.3898 81.0761 10.8271C80.8415 11.2538 80.7241 11.7444 80.7241 12.2991V12.5551C80.7241 13.1204 80.8521 13.6271 81.1081 14.0751C81.3748 14.5124 81.7428 14.8538 82.2121 15.0991C82.6815 15.3444 83.2201 15.4671 83.8281 15.4671C84.3295 15.4671 84.7828 15.3818 85.1881 15.2111C85.6041 15.0404 85.9668 14.7844 86.2761 14.4431L87.1241 15.4351C86.7401 15.8831 86.2601 16.2244 85.6841 16.4591C85.1188 16.6938 84.4841 16.8111 83.7801 16.8111ZM91.913 16.8111C91.209 16.8111 90.537 16.7151 89.897 16.5231C89.2677 16.3311 88.7717 16.0964 88.409 15.8191L89.049 14.6031C89.4117 14.8484 89.8597 15.0564 90.393 15.2271C90.9263 15.3978 91.4703 15.4831 92.025 15.4831C92.7397 15.4831 93.2517 15.3818 93.561 15.1791C93.881 14.9764 94.041 14.6938 94.041 14.3311C94.041 14.0644 93.945 13.8564 93.753 13.7071C93.561 13.5578 93.305 13.4458 92.985 13.3711C92.6757 13.2964 92.329 13.2324 91.945 13.1791C91.561 13.1151 91.177 13.0404 90.793 12.9551C90.409 12.8591 90.057 12.7311 89.737 12.5711C89.417 12.4004 89.161 12.1711 88.969 11.8831C88.777 11.5844 88.681 11.1898 88.681 10.6991C88.681 10.1871 88.825 9.73909 89.113 9.35509C89.401 8.97109 89.8063 8.67775 90.329 8.47509C90.8623 8.26175 91.4917 8.15509 92.217 8.15509C92.7717 8.15509 93.3317 8.22442 93.897 8.36309C94.473 8.49109 94.9423 8.67775 95.305 8.92309L94.649 10.1391C94.265 9.88309 93.865 9.70709 93.449 9.61109C93.033 9.51509 92.617 9.46709 92.201 9.46709C91.529 9.46709 91.0277 9.57909 90.697 9.80309C90.3663 10.0164 90.201 10.2938 90.201 10.6351C90.201 10.9231 90.297 11.1471 90.489 11.3071C90.6917 11.4564 90.9477 11.5738 91.257 11.6591C91.577 11.7444 91.929 11.8191 92.313 11.8831C92.697 11.9364 93.081 12.0111 93.465 12.1071C93.849 12.1924 94.1957 12.3151 94.505 12.4751C94.825 12.6351 95.081 12.8591 95.273 13.1471C95.4757 13.4351 95.577 13.8191 95.577 14.2991C95.577 14.8111 95.4277 15.2538 95.129 15.6271C94.8303 16.0004 94.409 16.2938 93.865 16.5071C93.321 16.7098 92.6703 16.8111 91.913 16.8111ZM99.6086 16.8111C98.9046 16.8111 98.2326 16.7151 97.5926 16.5231C96.9633 16.3311 96.4673 16.0964 96.1046 15.8191L96.7446 14.6031C97.1073 14.8484 97.5553 15.0564 98.0886 15.2271C98.622 15.3978 99.166 15.4831 99.7206 15.4831C100.435 15.4831 100.947 15.3818 101.257 15.1791C101.577 14.9764 101.737 14.6938 101.737 14.3311C101.737 14.0644 101.641 13.8564 101.449 13.7071C101.257 13.5578 101.001 13.4458 100.681 13.3711C100.371 13.2964 100.025 13.2324 99.6406 13.1791C99.2566 13.1151 98.8726 13.0404 98.4886 12.9551C98.1046 12.8591 97.7526 12.7311 97.4326 12.5711C97.1126 12.4004 96.8566 12.1711 96.6646 11.8831C96.4726 11.5844 96.3766 11.1898 96.3766 10.6991C96.3766 10.1871 96.5206 9.73909 96.8086 9.35509C97.0966 8.97109 97.502 8.67775 98.0246 8.47509C98.558 8.26175 99.1873 8.15509 99.9126 8.15509C100.467 8.15509 101.027 8.22442 101.593 8.36309C102.169 8.49109 102.638 8.67775 103.001 8.92309L102.345 10.1391C101.961 9.88309 101.561 9.70709 101.145 9.61109C100.729 9.51509 100.313 9.46709 99.8966 9.46709C99.2246 9.46709 98.7233 9.57909 98.3926 9.80309C98.062 10.0164 97.8966 10.2938 97.8966 10.6351C97.8966 10.9231 97.9926 11.1471 98.1846 11.3071C98.3873 11.4564 98.6433 11.5738 98.9526 11.6591C99.2726 11.7444 99.6246 11.8191 100.009 11.8831C100.393 11.9364 100.777 12.0111 101.161 12.1071C101.545 12.1924 101.891 12.3151 102.201 12.4751C102.521 12.6351 102.777 12.8591 102.969 13.1471C103.171 13.4351 103.273 13.8191 103.273 14.2991C103.273 14.8111 103.123 15.2538 102.825 15.6271C102.526 16.0004 102.105 16.2938 101.561 16.5071C101.017 16.7098 100.366 16.8111 99.6086 16.8111Z" fill="white"/>
<path d="M40.532 41.3071V40.3271L45.544 33.9151H47.056L42.086 40.3271L41.372 40.1031H49.198V41.3071H40.532ZM45.978 43.7151V41.3071L46.02 40.1031V37.9751H47.336V43.7151H45.978ZM52.9076 43.8271C52.2169 43.8271 51.5449 43.7198 50.8916 43.5051C50.2476 43.2904 49.7202 43.0011 49.3096 42.6371L49.9536 41.5311C50.2802 41.8391 50.7049 42.0911 51.2276 42.2871C51.7502 42.4831 52.3056 42.5811 52.8936 42.5811C53.6402 42.5811 54.2142 42.4224 54.6156 42.1051C55.0169 41.7878 55.2176 41.3631 55.2176 40.8311C55.2176 40.4671 55.1289 40.1498 54.9516 39.8791C54.7742 39.6084 54.4662 39.4031 54.0276 39.2631C53.5982 39.1138 53.0056 39.0391 52.2496 39.0391H50.0236L50.5416 33.9151H56.0716V35.1331H51.0596L51.7876 34.4471L51.3816 38.4931L50.6536 37.8211H52.5436C53.5236 37.8211 54.3122 37.9471 54.9096 38.1991C55.5069 38.4511 55.9409 38.8011 56.2116 39.2491C56.4822 39.6878 56.6176 40.1964 56.6176 40.7751C56.6176 41.3351 56.4822 41.8484 56.2116 42.3151C55.9409 42.7724 55.5302 43.1411 54.9796 43.4211C54.4382 43.6918 53.7476 43.8271 52.9076 43.8271ZM59.1546 43.7151V34.4751L59.7566 35.1331H56.9426V33.9151H60.5406V43.7151H59.1546ZM64.0983 43.7151L68.2563 34.5031L68.6203 35.1331H62.7963L63.4963 34.4471V36.8831H62.1523V33.9151H69.5443V34.8671L65.5823 43.7151H64.0983ZM77.0232 43.7151L73.7472 33.9151H75.1892L78.1992 42.9591H77.4712L80.5932 33.9151H81.8812L84.9332 42.9591H84.2332L87.2852 33.9151H88.6152L85.3392 43.7151H83.8692L81.0132 35.3291H81.3912L78.5212 43.7151H77.0232ZM93.8973 43.7151V42.1471L93.8273 41.8531V39.1791C93.8273 38.6098 93.6593 38.1711 93.3233 37.8631C92.9966 37.5458 92.5019 37.3871 91.8393 37.3871C91.4006 37.3871 90.9713 37.4618 90.5513 37.6111C90.1313 37.7511 89.7766 37.9424 89.4873 38.1851L88.9273 37.1771C89.3099 36.8691 89.7673 36.6358 90.2993 36.4771C90.8406 36.3091 91.4053 36.2251 91.9933 36.2251C93.0106 36.2251 93.7946 36.4724 94.3453 36.9671C94.8959 37.4618 95.1713 38.2178 95.1713 39.2351V43.7151H93.8973ZM91.4613 43.7991C90.9106 43.7991 90.4253 43.7058 90.0053 43.5191C89.5946 43.3324 89.2773 43.0758 89.0533 42.7491C88.8293 42.4131 88.7173 42.0351 88.7173 41.6151C88.7173 41.2138 88.8106 40.8498 88.9973 40.5231C89.1933 40.1964 89.5059 39.9351 89.9353 39.7391C90.3739 39.5431 90.9619 39.4451 91.6993 39.4451H94.0513V40.4111H91.7553C91.0833 40.4111 90.6306 40.5231 90.3973 40.7471C90.1639 40.9711 90.0473 41.2418 90.0473 41.5591C90.0473 41.9231 90.1919 42.2171 90.4813 42.4411C90.7706 42.6558 91.1719 42.7631 91.6853 42.7631C92.1893 42.7631 92.6279 42.6511 93.0013 42.4271C93.3839 42.2031 93.6593 41.8764 93.8273 41.4471L94.0933 42.3711C93.9159 42.8098 93.6033 43.1598 93.1553 43.4211C92.7073 43.6731 92.1426 43.7991 91.4613 43.7991ZM99.5065 43.7991C98.8905 43.7991 98.3025 43.7151 97.7425 43.5471C97.1918 43.3791 96.7578 43.1738 96.4405 42.9311L97.0005 41.8671C97.3178 42.0818 97.7098 42.2638 98.1765 42.4131C98.6431 42.5624 99.1191 42.6371 99.6045 42.6371C100.23 42.6371 100.678 42.5484 100.948 42.3711C101.228 42.1938 101.368 41.9464 101.368 41.6291C101.368 41.3958 101.284 41.2138 101.116 41.0831C100.948 40.9524 100.724 40.8544 100.444 40.7891C100.174 40.7238 99.8705 40.6678 99.5345 40.6211C99.1985 40.5651 98.8625 40.4998 98.5265 40.4251C98.1905 40.3411 97.8825 40.2291 97.6025 40.0891C97.3225 39.9398 97.0985 39.7391 96.9305 39.4871C96.7625 39.2258 96.6785 38.8804 96.6785 38.4511C96.6785 38.0031 96.8045 37.6111 97.0565 37.2751C97.3085 36.9391 97.6631 36.6824 98.1205 36.5051C98.5871 36.3184 99.1378 36.2251 99.7725 36.2251C100.258 36.2251 100.748 36.2858 101.242 36.4071C101.746 36.5191 102.157 36.6824 102.474 36.8971L101.9 37.9611C101.564 37.7371 101.214 37.5831 100.85 37.4991C100.486 37.4151 100.122 37.3731 99.7585 37.3731C99.1705 37.3731 98.7318 37.4711 98.4425 37.6671C98.1531 37.8538 98.0085 38.0964 98.0085 38.3951C98.0085 38.6471 98.0925 38.8431 98.2605 38.9831C98.4378 39.1138 98.6618 39.2164 98.9325 39.2911C99.2125 39.3658 99.5205 39.4311 99.8565 39.4871C100.192 39.5338 100.528 39.5991 100.864 39.6831C101.2 39.7578 101.504 39.8651 101.774 40.0051C102.054 40.1451 102.278 40.3411 102.446 40.5931C102.624 40.8451 102.712 41.1811 102.712 41.6011C102.712 42.0491 102.582 42.4364 102.32 42.7631C102.059 43.0898 101.69 43.3464 101.214 43.5331C100.738 43.7104 100.169 43.7991 99.5065 43.7991ZM108.074 36.2251C108.681 36.2251 109.213 36.3418 109.67 36.5751C110.137 36.8084 110.501 37.1631 110.762 37.6391C111.023 38.1151 111.154 38.7171 111.154 39.4451V43.7151H109.81V39.5991C109.81 38.8804 109.633 38.3391 109.278 37.9751C108.933 37.6111 108.443 37.4291 107.808 37.4291C107.332 37.4291 106.917 37.5224 106.562 37.7091C106.207 37.8958 105.932 38.1711 105.736 38.5351C105.549 38.8991 105.456 39.3518 105.456 39.8931V43.7151H104.112V33.3271H105.456V38.2971L105.19 37.7651C105.433 37.2798 105.806 36.9018 106.31 36.6311C106.814 36.3604 107.402 36.2251 108.074 36.2251ZM113.361 43.7151V36.2951H114.705V43.7151H113.361ZM114.033 34.8671C113.772 34.8671 113.553 34.7831 113.375 34.6151C113.207 34.4471 113.123 34.2418 113.123 33.9991C113.123 33.7471 113.207 33.5371 113.375 33.3691C113.553 33.2011 113.772 33.1171 114.033 33.1171C114.295 33.1171 114.509 33.2011 114.677 33.3691C114.855 33.5278 114.943 33.7284 114.943 33.9711C114.943 34.2231 114.859 34.4378 114.691 34.6151C114.523 34.7831 114.304 34.8671 114.033 34.8671ZM120.954 36.2251C121.56 36.2251 122.092 36.3418 122.55 36.5751C123.016 36.8084 123.38 37.1631 123.642 37.6391C123.903 38.1151 124.034 38.7171 124.034 39.4451V43.7151H122.69V39.5991C122.69 38.8804 122.512 38.3391 122.158 37.9751C121.812 37.6111 121.322 37.4291 120.688 37.4291C120.212 37.4291 119.796 37.5224 119.442 37.7091C119.087 37.8958 118.812 38.1711 118.616 38.5351C118.429 38.8991 118.336 39.3518 118.336 39.8931V43.7151H116.992V36.2951H118.28V38.2971L118.07 37.7651C118.312 37.2798 118.686 36.9018 119.19 36.6311C119.694 36.3604 120.282 36.2251 120.954 36.2251ZM129.489 46.5151C128.808 46.5151 128.145 46.4171 127.501 46.2211C126.866 46.0344 126.348 45.7638 125.947 45.4091L126.591 44.3731C126.936 44.6718 127.361 44.9051 127.865 45.0731C128.369 45.2504 128.896 45.3391 129.447 45.3391C130.324 45.3391 130.968 45.1338 131.379 44.7231C131.79 44.3124 131.995 43.6871 131.995 42.8471V41.2791L132.135 39.8091L132.065 38.3251V36.2951H133.339V42.7071C133.339 44.0138 133.012 44.9751 132.359 45.5911C131.706 46.2071 130.749 46.5151 129.489 46.5151ZM129.321 43.4071C128.602 43.4071 127.958 43.2578 127.389 42.9591C126.829 42.6511 126.381 42.2264 126.045 41.6851C125.718 41.1438 125.555 40.5184 125.555 39.8091C125.555 39.0904 125.718 38.4651 126.045 37.9331C126.381 37.3918 126.829 36.9718 127.389 36.6731C127.958 36.3744 128.602 36.2251 129.321 36.2251C129.956 36.2251 130.534 36.3558 131.057 36.6171C131.58 36.8691 131.995 37.2611 132.303 37.7931C132.62 38.3251 132.779 38.9971 132.779 39.8091C132.779 40.6118 132.62 41.2791 132.303 41.8111C131.995 42.3431 131.58 42.7444 131.057 43.0151C130.534 43.2764 129.956 43.4071 129.321 43.4071ZM129.475 42.2311C129.97 42.2311 130.408 42.1284 130.791 41.9231C131.174 41.7178 131.472 41.4331 131.687 41.0691C131.911 40.7051 132.023 40.2851 132.023 39.8091C132.023 39.3331 131.911 38.9131 131.687 38.5491C131.472 38.1851 131.174 37.9051 130.791 37.7091C130.408 37.5038 129.97 37.4011 129.475 37.4011C128.98 37.4011 128.537 37.5038 128.145 37.7091C127.762 37.9051 127.459 38.1851 127.235 38.5491C127.02 38.9131 126.913 39.3331 126.913 39.8091C126.913 40.2851 127.02 40.7051 127.235 41.0691C127.459 41.4331 127.762 41.7178 128.145 41.9231C128.537 42.1284 128.98 42.2311 129.475 42.2311ZM138.175 43.7991C137.428 43.7991 136.85 43.5984 136.439 43.1971C136.028 42.7958 135.823 42.2218 135.823 41.4751V34.6711H137.167V41.4191C137.167 41.8204 137.265 42.1284 137.461 42.3431C137.666 42.5578 137.956 42.6651 138.329 42.6651C138.749 42.6651 139.099 42.5484 139.379 42.3151L139.799 43.2811C139.594 43.4584 139.346 43.5891 139.057 43.6731C138.777 43.7571 138.483 43.7991 138.175 43.7991ZM134.563 37.4011V36.2951H139.295V37.4011H134.563ZM144.076 43.7991C143.329 43.7991 142.666 43.6358 142.088 43.3091C141.509 42.9824 141.052 42.5344 140.716 41.9651C140.38 41.3864 140.212 40.7331 140.212 40.0051C140.212 39.2678 140.38 38.6144 140.716 38.0451C141.052 37.4758 141.509 37.0324 142.088 36.7151C142.666 36.3884 143.329 36.2251 144.076 36.2251C144.813 36.2251 145.471 36.3884 146.05 36.7151C146.638 37.0324 147.095 37.4758 147.422 38.0451C147.758 38.6051 147.926 39.2584 147.926 40.0051C147.926 40.7424 147.758 41.3958 147.422 41.9651C147.095 42.5344 146.638 42.9824 146.05 43.3091C145.471 43.6358 144.813 43.7991 144.076 43.7991ZM144.076 42.6231C144.552 42.6231 144.976 42.5158 145.35 42.3011C145.732 42.0864 146.031 41.7831 146.246 41.3911C146.46 40.9898 146.568 40.5278 146.568 40.0051C146.568 39.4731 146.46 39.0158 146.246 38.6331C146.031 38.2411 145.732 37.9378 145.35 37.7231C144.976 37.5084 144.552 37.4011 144.076 37.4011C143.6 37.4011 143.175 37.5084 142.802 37.7231C142.428 37.9378 142.13 38.2411 141.906 38.6331C141.682 39.0158 141.57 39.4731 141.57 40.0051C141.57 40.5278 141.682 40.9898 141.906 41.3911C142.13 41.7831 142.428 42.0864 142.802 42.3011C143.175 42.5158 143.6 42.6231 144.076 42.6231ZM153.466 36.2251C154.073 36.2251 154.605 36.3418 155.062 36.5751C155.529 36.8084 155.893 37.1631 156.154 37.6391C156.416 38.1151 156.546 38.7171 156.546 39.4451V43.7151H155.202V39.5991C155.202 38.8804 155.025 38.3391 154.67 37.9751C154.325 37.6111 153.835 37.4291 153.2 37.4291C152.724 37.4291 152.309 37.5224 151.954 37.7091C151.6 37.8958 151.324 38.1711 151.128 38.5351C150.942 38.8991 150.848 39.3518 150.848 39.8931V43.7151H149.504V36.2951H150.792V38.2971L150.582 37.7651C150.825 37.2798 151.198 36.9018 151.702 36.6311C152.206 36.3604 152.794 36.2251 153.466 36.2251ZM160.945 43.7151L165.383 33.9151H166.769L171.221 43.7151H169.751L165.789 34.6991H166.349L162.387 43.7151H160.945ZM162.835 41.2651L163.213 40.1451H168.729L169.135 41.2651H162.835ZM173.771 43.7151L170.523 36.2951H171.923L174.807 43.0151H174.135L177.075 36.2951H178.391L175.143 43.7151H173.771ZM182.464 43.7991C181.67 43.7991 180.97 43.6358 180.364 43.3091C179.766 42.9824 179.3 42.5344 178.964 41.9651C178.637 41.3958 178.474 40.7424 178.474 40.0051C178.474 39.2678 178.632 38.6144 178.95 38.0451C179.276 37.4758 179.72 37.0324 180.28 36.7151C180.849 36.3884 181.488 36.2251 182.198 36.2251C182.916 36.2251 183.551 36.3838 184.102 36.7011C184.652 37.0184 185.082 37.4664 185.39 38.0451C185.707 38.6144 185.866 39.2818 185.866 40.0471C185.866 40.1031 185.861 40.1684 185.852 40.2431C185.852 40.3178 185.847 40.3878 185.838 40.4531H179.524V39.4871H185.138L184.592 39.8231C184.601 39.3471 184.503 38.9224 184.298 38.5491C184.092 38.1758 183.808 37.8864 183.444 37.6811C183.089 37.4664 182.674 37.3591 182.198 37.3591C181.731 37.3591 181.316 37.4664 180.952 37.6811C180.588 37.8864 180.303 38.1804 180.098 38.5631C179.892 38.9364 179.79 39.3658 179.79 39.8511V40.0751C179.79 40.5698 179.902 41.0131 180.126 41.4051C180.359 41.7878 180.681 42.0864 181.092 42.3011C181.502 42.5158 181.974 42.6231 182.506 42.6231C182.944 42.6231 183.341 42.5484 183.696 42.3991C184.06 42.2498 184.377 42.0258 184.648 41.7271L185.39 42.5951C185.054 42.9871 184.634 43.2858 184.13 43.4911C183.635 43.6964 183.08 43.7991 182.464 43.7991ZM187.774 43.7991C187.513 43.7991 187.289 43.7104 187.102 43.5331C186.915 43.3464 186.822 43.1131 186.822 42.8331C186.822 42.5531 186.915 42.3244 187.102 42.1471C187.289 41.9698 187.513 41.8811 187.774 41.8811C188.026 41.8811 188.241 41.9698 188.418 42.1471C188.605 42.3244 188.698 42.5531 188.698 42.8331C188.698 43.1131 188.605 43.3464 188.418 43.5331C188.241 43.7104 188.026 43.7991 187.774 43.7991ZM194.02 43.7151V33.9151H195.168L199.564 41.3211H198.948L203.288 33.9151H204.436L204.45 43.7151H203.106L203.092 36.0291H203.414L199.55 42.5251H198.906L195.014 36.0291H195.364V43.7151H194.02ZM211.521 43.7151V42.1471L211.451 41.8531V39.1791C211.451 38.6098 211.283 38.1711 210.947 37.8631C210.62 37.5458 210.125 37.3871 209.463 37.3871C209.024 37.3871 208.595 37.4618 208.175 37.6111C207.755 37.7511 207.4 37.9424 207.111 38.1851L206.551 37.1771C206.933 36.8691 207.391 36.6358 207.923 36.4771C208.464 36.3091 209.029 36.2251 209.617 36.2251C210.634 36.2251 211.418 36.4724 211.969 36.9671C212.519 37.4618 212.795 38.2178 212.795 39.2351V43.7151H211.521ZM209.085 43.7991C208.534 43.7991 208.049 43.7058 207.629 43.5191C207.218 43.3324 206.901 43.0758 206.677 42.7491C206.453 42.4131 206.341 42.0351 206.341 41.6151C206.341 41.2138 206.434 40.8498 206.621 40.5231C206.817 40.1964 207.129 39.9351 207.559 39.7391C207.997 39.5431 208.585 39.4451 209.323 39.4451H211.675V40.4111H209.379C208.707 40.4111 208.254 40.5231 208.021 40.7471C207.787 40.9711 207.671 41.2418 207.671 41.5591C207.671 41.9231 207.815 42.2171 208.105 42.4411C208.394 42.6558 208.795 42.7631 209.309 42.7631C209.813 42.7631 210.251 42.6511 210.625 42.4271C211.007 42.2031 211.283 41.8764 211.451 41.4471L211.717 42.3711C211.539 42.8098 211.227 43.1598 210.779 43.4211C210.331 43.6731 209.766 43.7991 209.085 43.7991ZM218.964 36.2251C219.571 36.2251 220.103 36.3418 220.56 36.5751C221.027 36.8084 221.391 37.1631 221.652 37.6391C221.913 38.1151 222.044 38.7171 222.044 39.4451V43.7151H220.7V39.5991C220.7 38.8804 220.523 38.3391 220.168 37.9751C219.823 37.6111 219.333 37.4291 218.698 37.4291C218.222 37.4291 217.807 37.5224 217.452 37.7091C217.097 37.8958 216.822 38.1711 216.626 38.5351C216.439 38.8991 216.346 39.3518 216.346 39.8931V43.7151H215.002V36.2951H216.29V38.2971L216.08 37.7651C216.323 37.2798 216.696 36.9018 217.2 36.6311C217.704 36.3604 218.292 36.2251 218.964 36.2251ZM227.485 43.7991C226.729 43.7991 226.053 43.6358 225.455 43.3091C224.867 42.9824 224.405 42.5344 224.069 41.9651C223.733 41.3958 223.565 40.7424 223.565 40.0051C223.565 39.2678 223.733 38.6144 224.069 38.0451C224.405 37.4758 224.867 37.0324 225.455 36.7151C226.053 36.3884 226.729 36.2251 227.485 36.2251C228.157 36.2251 228.755 36.3604 229.277 36.6311C229.809 36.8924 230.22 37.2844 230.509 37.8071L229.487 38.4651C229.245 38.1011 228.946 37.8351 228.591 37.6671C228.246 37.4898 227.873 37.4011 227.471 37.4011C226.986 37.4011 226.552 37.5084 226.169 37.7231C225.787 37.9378 225.483 38.2411 225.259 38.6331C225.035 39.0158 224.923 39.4731 224.923 40.0051C224.923 40.5371 225.035 40.9991 225.259 41.3911C225.483 41.7831 225.787 42.0864 226.169 42.3011C226.552 42.5158 226.986 42.6231 227.471 42.6231C227.873 42.6231 228.246 42.5391 228.591 42.3711C228.946 42.1938 229.245 41.9231 229.487 41.5591L230.509 42.2031C230.22 42.7164 229.809 43.1131 229.277 43.3931C228.755 43.6638 228.157 43.7991 227.485 43.7991ZM235.836 36.2251C236.442 36.2251 236.974 36.3418 237.432 36.5751C237.898 36.8084 238.262 37.1631 238.524 37.6391C238.785 38.1151 238.916 38.7171 238.916 39.4451V43.7151H237.572V39.5991C237.572 38.8804 237.394 38.3391 237.04 37.9751C236.694 37.6111 236.204 37.4291 235.57 37.4291C235.094 37.4291 234.678 37.5224 234.324 37.7091C233.969 37.8958 233.694 38.1711 233.498 38.5351C233.311 38.8991 233.218 39.3518 233.218 39.8931V43.7151H231.874V33.3271H233.218V38.2971L232.952 37.7651C233.194 37.2798 233.568 36.9018 234.072 36.6311C234.576 36.3604 235.164 36.2251 235.836 36.2251ZM244.427 43.7991C243.634 43.7991 242.934 43.6358 242.327 43.3091C241.73 42.9824 241.263 42.5344 240.927 41.9651C240.6 41.3958 240.437 40.7424 240.437 40.0051C240.437 39.2678 240.596 38.6144 240.913 38.0451C241.24 37.4758 241.683 37.0324 242.243 36.7151C242.812 36.3884 243.452 36.2251 244.161 36.2251C244.88 36.2251 245.514 36.3838 246.065 36.7011C246.616 37.0184 247.045 37.4664 247.353 38.0451C247.67 38.6144 247.829 39.2818 247.829 40.0471C247.829 40.1031 247.824 40.1684 247.815 40.2431C247.815 40.3178 247.81 40.3878 247.801 40.4531H241.487V39.4871H247.101L246.555 39.8231C246.564 39.3471 246.466 38.9224 246.261 38.5491C246.056 38.1758 245.771 37.8864 245.407 37.6811C245.052 37.4664 244.637 37.3591 244.161 37.3591C243.694 37.3591 243.279 37.4664 242.915 37.6811C242.551 37.8864 242.266 38.1804 242.061 38.5631C241.856 38.9364 241.753 39.3658 241.753 39.8511V40.0751C241.753 40.5698 241.865 41.0131 242.089 41.4051C242.322 41.7878 242.644 42.0864 243.055 42.3011C243.466 42.5158 243.937 42.6231 244.469 42.6231C244.908 42.6231 245.304 42.5484 245.659 42.3991C246.023 42.2498 246.34 42.0258 246.611 41.7271L247.353 42.5951C247.017 42.9871 246.597 43.2858 246.093 43.4911C245.598 43.6964 245.043 43.7991 244.427 43.7991ZM251.543 43.7991C250.927 43.7991 250.339 43.7151 249.779 43.5471C249.229 43.3791 248.795 43.1738 248.477 42.9311L249.037 41.8671C249.355 42.0818 249.747 42.2638 250.213 42.4131C250.68 42.5624 251.156 42.6371 251.641 42.6371C252.267 42.6371 252.715 42.5484 252.985 42.3711C253.265 42.1938 253.405 41.9464 253.405 41.6291C253.405 41.3958 253.321 41.2138 253.153 41.0831C252.985 40.9524 252.761 40.8544 252.481 40.7891C252.211 40.7238 251.907 40.6678 251.571 40.6211C251.235 40.5651 250.899 40.4998 250.563 40.4251C250.227 40.3411 249.919 40.2291 249.639 40.0891C249.359 39.9398 249.135 39.7391 248.967 39.4871C248.799 39.2258 248.715 38.8804 248.715 38.4511C248.715 38.0031 248.841 37.6111 249.093 37.2751C249.345 36.9391 249.7 36.6824 250.157 36.5051C250.624 36.3184 251.175 36.2251 251.809 36.2251C252.295 36.2251 252.785 36.2858 253.279 36.4071C253.783 36.5191 254.194 36.6824 254.511 36.8971L253.937 37.9611C253.601 37.7371 253.251 37.5831 252.887 37.4991C252.523 37.4151 252.159 37.3731 251.795 37.3731C251.207 37.3731 250.769 37.4711 250.479 37.6671C250.19 37.8538 250.045 38.0964 250.045 38.3951C250.045 38.6471 250.129 38.8431 250.297 38.9831C250.475 39.1138 250.699 39.2164 250.969 39.2911C251.249 39.3658 251.557 39.4311 251.893 39.4871C252.229 39.5338 252.565 39.5991 252.901 39.6831C253.237 39.7578 253.541 39.8651 253.811 40.0051C254.091 40.1451 254.315 40.3411 254.483 40.5931C254.661 40.8451 254.749 41.1811 254.749 41.6011C254.749 42.0491 254.619 42.4364 254.357 42.7631C254.096 43.0898 253.727 43.3464 253.251 43.5331C252.775 43.7104 252.206 43.7991 251.543 43.7991ZM258.697 43.7991C257.95 43.7991 257.372 43.5984 256.961 43.1971C256.55 42.7958 256.345 42.2218 256.345 41.4751V34.6711H257.689V41.4191C257.689 41.8204 257.787 42.1284 257.983 42.3431C258.188 42.5578 258.478 42.6651 258.851 42.6651C259.271 42.6651 259.621 42.5484 259.901 42.3151L260.321 43.2811C260.116 43.4584 259.868 43.5891 259.579 43.6731C259.299 43.7571 259.005 43.7991 258.697 43.7991ZM255.085 37.4011V36.2951H259.817V37.4011H255.085ZM264.724 43.7991C263.93 43.7991 263.23 43.6358 262.624 43.3091C262.026 42.9824 261.56 42.5344 261.224 41.9651C260.897 41.3958 260.734 40.7424 260.734 40.0051C260.734 39.2678 260.892 38.6144 261.21 38.0451C261.536 37.4758 261.98 37.0324 262.54 36.7151C263.109 36.3884 263.748 36.2251 264.458 36.2251C265.176 36.2251 265.811 36.3838 266.362 36.7011C266.912 37.0184 267.342 37.4664 267.65 38.0451C267.967 38.6144 268.126 39.2818 268.126 40.0471C268.126 40.1031 268.121 40.1684 268.112 40.2431C268.112 40.3178 268.107 40.3878 268.098 40.4531H261.784V39.4871H267.398L266.852 39.8231C266.861 39.3471 266.763 38.9224 266.558 38.5491C266.352 38.1758 266.068 37.8864 265.704 37.6811C265.349 37.4664 264.934 37.3591 264.458 37.3591C263.991 37.3591 263.576 37.4664 263.212 37.6811C262.848 37.8864 262.563 38.1804 262.358 38.5631C262.152 38.9364 262.05 39.3658 262.05 39.8511V40.0751C262.05 40.5698 262.162 41.0131 262.386 41.4051C262.619 41.7878 262.941 42.0864 263.352 42.3011C263.762 42.5158 264.234 42.6231 264.766 42.6231C265.204 42.6231 265.601 42.5484 265.956 42.3991C266.32 42.2498 266.637 42.0258 266.908 41.7271L267.65 42.5951C267.314 42.9871 266.894 43.2858 266.39 43.4911C265.895 43.6964 265.34 43.7991 264.724 43.7991ZM269.712 43.7151V36.2951H271V38.3111L270.874 37.8071C271.079 37.2938 271.425 36.9018 271.91 36.6311C272.395 36.3604 272.993 36.2251 273.702 36.2251V37.5271C273.646 37.5178 273.59 37.5131 273.534 37.5131C273.487 37.5131 273.441 37.5131 273.394 37.5131C272.675 37.5131 272.106 37.7278 271.686 38.1571C271.266 38.5864 271.056 39.2071 271.056 40.0191V43.7151H269.712ZM274.505 45.7871L275.205 42.9591L275.387 43.7711C275.117 43.7711 274.888 43.6871 274.701 43.5191C274.524 43.3511 274.435 43.1224 274.435 42.8331C274.435 42.5531 274.524 42.3244 274.701 42.1471C274.888 41.9698 275.112 41.8811 275.373 41.8811C275.644 41.8811 275.863 41.9744 276.031 42.1611C276.199 42.3384 276.283 42.5624 276.283 42.8331C276.283 42.9264 276.274 43.0198 276.255 43.1131C276.246 43.1971 276.223 43.2998 276.185 43.4211C276.157 43.5331 276.111 43.6731 276.045 43.8411L275.387 45.7871H274.505ZM282.837 41.3491L282.767 39.6411L288.325 33.9151H289.921L285.623 38.4511L284.839 39.3191L282.837 41.3491ZM281.605 43.7151V33.9151H283.005V43.7151H281.605ZM288.549 43.7151L284.531 39.0391L285.469 38.0031L290.187 43.7151H288.549ZM294.167 43.7991C293.374 43.7991 292.674 43.6358 292.067 43.3091C291.47 42.9824 291.003 42.5344 290.667 41.9651C290.341 41.3958 290.177 40.7424 290.177 40.0051C290.177 39.2678 290.336 38.6144 290.653 38.0451C290.98 37.4758 291.423 37.0324 291.983 36.7151C292.553 36.3884 293.192 36.2251 293.901 36.2251C294.62 36.2251 295.255 36.3838 295.805 36.7011C296.356 37.0184 296.785 37.4664 297.093 38.0451C297.411 38.6144 297.569 39.2818 297.569 40.0471C297.569 40.1031 297.565 40.1684 297.555 40.2431C297.555 40.3178 297.551 40.3878 297.541 40.4531H291.227V39.4871H296.841L296.295 39.8231C296.305 39.3471 296.207 38.9224 296.001 38.5491C295.796 38.1758 295.511 37.8864 295.147 37.6811C294.793 37.4664 294.377 37.3591 293.901 37.3591C293.435 37.3591 293.019 37.4664 292.655 37.6811C292.291 37.8864 292.007 38.1804 291.801 38.5631C291.596 38.9364 291.493 39.3658 291.493 39.8511V40.0751C291.493 40.5698 291.605 41.0131 291.829 41.4051C292.063 41.7878 292.385 42.0864 292.795 42.3011C293.206 42.5158 293.677 42.6231 294.209 42.6231C294.648 42.6231 295.045 42.5484 295.399 42.3991C295.763 42.2498 296.081 42.0258 296.351 41.7271L297.093 42.5951C296.757 42.9871 296.337 43.2858 295.833 43.4911C295.339 43.6964 294.783 43.7991 294.167 43.7991ZM303.118 36.2251C303.724 36.2251 304.256 36.3418 304.714 36.5751C305.18 36.8084 305.544 37.1631 305.806 37.6391C306.067 38.1151 306.198 38.7171 306.198 39.4451V43.7151H304.854V39.5991C304.854 38.8804 304.676 38.3391 304.322 37.9751C303.976 37.6111 303.486 37.4291 302.852 37.4291C302.376 37.4291 301.96 37.5224 301.606 37.7091C301.251 37.8958 300.976 38.1711 300.78 38.5351C300.593 38.8991 300.5 39.3518 300.5 39.8931V43.7151H299.156V36.2951H300.444V38.2971L300.234 37.7651C300.476 37.2798 300.85 36.9018 301.354 36.6311C301.858 36.3604 302.446 36.2251 303.118 36.2251ZM310.953 43.7991C310.206 43.7991 309.628 43.5984 309.217 43.1971C308.806 42.7958 308.601 42.2218 308.601 41.4751V34.6711H309.945V41.4191C309.945 41.8204 310.043 42.1284 310.239 42.3431C310.444 42.5578 310.734 42.6651 311.107 42.6651C311.527 42.6651 311.877 42.5484 312.157 42.3151L312.577 43.2811C312.372 43.4584 312.124 43.5891 311.835 43.6731C311.555 43.7571 311.261 43.7991 310.953 43.7991ZM307.341 37.4011V36.2951H312.073V37.4011H307.341ZM317.044 43.7991C316.409 43.7991 315.849 43.6824 315.364 43.4491C314.888 43.2158 314.514 42.8611 314.244 42.3851C313.982 41.8998 313.852 41.2931 313.852 40.5651V36.2951H315.196V40.4111C315.196 41.1391 315.368 41.6851 315.714 42.0491C316.068 42.4131 316.563 42.5951 317.198 42.5951C317.664 42.5951 318.07 42.5018 318.416 42.3151C318.761 42.1191 319.027 41.8391 319.214 41.4751C319.4 41.1018 319.494 40.6538 319.494 40.1311V36.2951H320.838V43.7151H319.564V41.7131L319.774 42.2451C319.531 42.7398 319.167 43.1224 318.682 43.3931C318.196 43.6638 317.65 43.7991 317.044 43.7991ZM326.35 43.7991C325.594 43.7991 324.918 43.6358 324.32 43.3091C323.732 42.9824 323.27 42.5344 322.934 41.9651C322.598 41.3958 322.43 40.7424 322.43 40.0051C322.43 39.2678 322.598 38.6144 322.934 38.0451C323.27 37.4758 323.732 37.0324 324.32 36.7151C324.918 36.3884 325.594 36.2251 326.35 36.2251C327.022 36.2251 327.62 36.3604 328.142 36.6311C328.674 36.8924 329.085 37.2844 329.374 37.8071L328.352 38.4651C328.11 38.1011 327.811 37.8351 327.456 37.6671C327.111 37.4898 326.738 37.4011 326.336 37.4011C325.851 37.4011 325.417 37.5084 325.034 37.7231C324.652 37.9378 324.348 38.2411 324.124 38.6331C323.9 39.0158 323.788 39.4731 323.788 40.0051C323.788 40.5371 323.9 40.9991 324.124 41.3911C324.348 41.7831 324.652 42.0864 325.034 42.3011C325.417 42.5158 325.851 42.6231 326.336 42.6231C326.738 42.6231 327.111 42.5391 327.456 42.3711C327.811 42.1938 328.11 41.9231 328.352 41.5591L329.374 42.2031C329.085 42.7164 328.674 43.1131 328.142 43.3931C327.62 43.6638 327.022 43.7991 326.35 43.7991ZM331.831 41.9231L331.859 40.2011L336.129 36.2951H337.753L334.477 39.5151L333.749 40.1311L331.831 41.9231ZM330.739 43.7151V33.3271H332.083V43.7151H330.739ZM336.409 43.7151L333.497 40.1031L334.365 39.0251L338.061 43.7151H336.409ZM339.011 46.5151C338.657 46.5151 338.311 46.4544 337.975 46.3331C337.639 46.2211 337.35 46.0531 337.107 45.8291L337.681 44.8211C337.868 44.9984 338.073 45.1338 338.297 45.2271C338.521 45.3204 338.759 45.3671 339.011 45.3671C339.338 45.3671 339.609 45.2831 339.823 45.1151C340.038 44.9471 340.239 44.6484 340.425 44.2191L340.887 43.1971L341.027 43.0291L343.939 36.2951H345.255L341.657 44.4571C341.443 44.9798 341.2 45.3904 340.929 45.6891C340.668 45.9878 340.379 46.1978 340.061 46.3191C339.744 46.4498 339.394 46.5151 339.011 46.5151ZM340.775 43.9531L337.387 36.2951H338.787L341.671 42.9031L340.775 43.9531ZM352.103 43.8271C351.413 43.8271 350.741 43.7198 350.087 43.5051C349.443 43.2904 348.916 43.0011 348.505 42.6371L349.149 41.5311C349.476 41.8391 349.901 42.0911 350.423 42.2871C350.946 42.4831 351.506 42.5811 352.103 42.5811C352.831 42.5811 353.396 42.4271 353.797 42.1191C354.208 41.8018 354.413 41.3771 354.413 40.8451C354.413 40.3318 354.217 39.9211 353.825 39.6131C353.443 39.2958 352.831 39.1371 351.991 39.1371H351.207V38.1571L354.119 34.5731L354.315 35.1331H348.953V33.9151H355.421V34.8671L352.523 38.4371L351.795 38.0031H352.257C353.443 38.0031 354.329 38.2691 354.917 38.8011C355.515 39.3331 355.813 40.0098 355.813 40.8311C355.813 41.3818 355.678 41.8858 355.407 42.3431C355.137 42.8004 354.726 43.1644 354.175 43.4351C353.634 43.6964 352.943 43.8271 352.103 43.8271ZM360.017 33.8031C360.904 33.8031 361.65 33.9944 362.257 34.3771C362.873 34.7598 363.34 35.3151 363.657 36.0431C363.974 36.7618 364.133 37.6438 364.133 38.6891C364.133 39.7998 363.937 40.7378 363.545 41.5031C363.153 42.2684 362.612 42.8471 361.921 43.2391C361.23 43.6311 360.423 43.8271 359.499 43.8271C359.042 43.8271 358.598 43.7804 358.169 43.6871C357.749 43.5938 357.38 43.4491 357.063 43.2531L357.595 42.1611C357.856 42.3291 358.146 42.4504 358.463 42.5251C358.79 42.5904 359.13 42.6231 359.485 42.6231C360.474 42.6231 361.263 42.3151 361.851 41.6991C362.439 41.0738 362.733 40.1498 362.733 38.9271C362.733 38.7311 362.724 38.4978 362.705 38.2271C362.686 37.9564 362.644 37.6904 362.579 37.4291L363.041 37.9051C362.91 38.3344 362.691 38.6984 362.383 38.9971C362.084 39.2864 361.72 39.5058 361.291 39.6551C360.871 39.7951 360.409 39.8651 359.905 39.8651C359.261 39.8651 358.687 39.7438 358.183 39.5011C357.679 39.2584 357.282 38.9178 356.993 38.4791C356.704 38.0311 356.559 37.5038 356.559 36.8971C356.559 36.2624 356.708 35.7164 357.007 35.2591C357.315 34.7924 357.73 34.4331 358.253 34.1811C358.785 33.9291 359.373 33.8031 360.017 33.8031ZM360.073 34.9371C359.653 34.9371 359.28 35.0164 358.953 35.1751C358.626 35.3338 358.37 35.5531 358.183 35.8331C358.006 36.1131 357.917 36.4491 357.917 36.8411C357.917 37.4198 358.118 37.8818 358.519 38.2271C358.92 38.5631 359.462 38.7311 360.143 38.7311C360.591 38.7311 360.983 38.6471 361.319 38.4791C361.664 38.3111 361.93 38.0824 362.117 37.7931C362.313 37.5038 362.411 37.1818 362.411 36.8271C362.411 36.4818 362.322 36.1691 362.145 35.8891C361.968 35.6091 361.706 35.3804 361.361 35.2031C361.016 35.0258 360.586 34.9371 360.073 34.9371ZM365.06 41.3071V40.3271L370.072 33.9151H371.584L366.614 40.3271L365.9 40.1031H373.726V41.3071H365.06ZM370.506 43.7151V41.3071L370.548 40.1031V37.9751H371.864V43.7151H370.506ZM377.367 33.8031C378.254 33.8031 379.001 33.9944 379.607 34.3771C380.223 34.7598 380.69 35.3151 381.007 36.0431C381.325 36.7618 381.483 37.6438 381.483 38.6891C381.483 39.7998 381.287 40.7378 380.895 41.5031C380.503 42.2684 379.962 42.8471 379.271 43.2391C378.581 43.6311 377.773 43.8271 376.849 43.8271C376.392 43.8271 375.949 43.7804 375.519 43.6871C375.099 43.5938 374.731 43.4491 374.413 43.2531L374.945 42.1611C375.207 42.3291 375.496 42.4504 375.813 42.5251C376.14 42.5904 376.481 42.6231 376.835 42.6231C377.825 42.6231 378.613 42.3151 379.201 41.6991C379.789 41.0738 380.083 40.1498 380.083 38.9271C380.083 38.7311 380.074 38.4978 380.055 38.2271C380.037 37.9564 379.995 37.6904 379.929 37.4291L380.391 37.9051C380.261 38.3344 380.041 38.6984 379.733 38.9971C379.435 39.2864 379.071 39.5058 378.641 39.6551C378.221 39.7951 377.759 39.8651 377.255 39.8651C376.611 39.8651 376.037 39.7438 375.533 39.5011C375.029 39.2584 374.633 38.9178 374.343 38.4791C374.054 38.0311 373.909 37.5038 373.909 36.8971C373.909 36.2624 374.059 35.7164 374.357 35.2591C374.665 34.7924 375.081 34.4331 375.603 34.1811C376.135 33.9291 376.723 33.8031 377.367 33.8031ZM377.423 34.9371C377.003 34.9371 376.63 35.0164 376.303 35.1751C375.977 35.3338 375.72 35.5531 375.533 35.8331C375.356 36.1131 375.267 36.4491 375.267 36.8411C375.267 37.4198 375.468 37.8818 375.869 38.2271C376.271 38.5631 376.812 38.7311 377.493 38.7311C377.941 38.7311 378.333 38.6471 378.669 38.4791C379.015 38.3111 379.281 38.0824 379.467 37.7931C379.663 37.5038 379.761 37.1818 379.761 36.8271C379.761 36.4818 379.673 36.1691 379.495 35.8891C379.318 35.6091 379.057 35.3804 378.711 35.2031C378.366 35.0258 377.937 34.9371 377.423 34.9371ZM385.714 43.8271C385.023 43.8271 384.351 43.7198 383.698 43.5051C383.054 43.2904 382.526 43.0011 382.116 42.6371L382.76 41.5311C383.086 41.8391 383.511 42.0911 384.034 42.2871C384.556 42.4831 385.112 42.5811 385.7 42.5811C386.446 42.5811 387.02 42.4224 387.422 42.1051C387.823 41.7878 388.024 41.3631 388.024 40.8311C388.024 40.4671 387.935 40.1498 387.758 39.8791C387.58 39.6084 387.272 39.4031 386.834 39.2631C386.404 39.1138 385.812 39.0391 385.056 39.0391H382.83L383.348 33.9151H388.878V35.1331H383.866L384.594 34.4471L384.188 38.4931L383.46 37.8211H385.35C386.33 37.8211 387.118 37.9471 387.716 38.1991C388.313 38.4511 388.747 38.8011 389.018 39.2491C389.288 39.6878 389.424 40.1964 389.424 40.7751C389.424 41.3351 389.288 41.8484 389.018 42.3151C388.747 42.7724 388.336 43.1411 387.786 43.4211C387.244 43.6918 386.554 43.8271 385.714 43.8271Z" fill="#A9A9AA"/>
<path d="M12 12.7151C7.0374 12.7151 3 16.6417 3 21.4682C3 27.0299 6.7107 30.3854 9.17175 32.6061C9.95475 33.3461 10.9816 33.7151 12.0063 33.7151C13.0287 33.7151 14.0489 33.3475 14.8206 32.6135C17.2812 30.3929 21 27.0356 21 21.4682C21 16.6417 16.9626 12.7151 12 12.7151ZM12 24.9694C10.015 24.9694 8.4 23.3987 8.4 21.4682C8.4 19.5377 10.015 17.9669 12 17.9669C13.985 17.9669 15.6 19.5377 15.6 21.4682C15.6 23.3987 13.985 24.9694 12 24.9694Z" fill="#FE390C"/>
</svg>
