<svg width="238" height="121" viewBox="0 0 238 121" fill="none" xmlns="http://www.w3.org/2000/svg">
<path d="M19.7656 95.3401C13.9583 95.3401 9.46615 93.7125 6.28906 90.4573C3.13802 87.2021 1.5625 82.5146 1.5625 76.3948V45.3792C1.5625 38.9208 3.0599 33.9729 6.05469 30.5354C9.07552 27.0719 13.6458 25.3401 19.7656 25.3401C25.9115 25.3401 30.4818 27.0719 33.4766 30.5354C36.4714 33.9729 37.9688 38.9208 37.9688 45.3792V76.3948C37.9688 82.5146 36.3932 87.2021 33.2422 90.4573C30.0911 93.7125 25.599 95.3401 19.7656 95.3401ZM19.7656 82.6838C20.8333 82.6838 21.6667 82.2021 22.2656 81.2385C22.8646 80.275 23.1641 79.1943 23.1641 77.9963V44.051C23.1641 42.4364 22.9818 41.0302 22.6172 39.8323C22.2786 38.6083 21.3281 37.9963 19.7656 37.9963C18.2031 37.9963 17.2396 38.6083 16.875 39.8323C16.5365 41.0302 16.3672 42.4364 16.3672 44.051V77.9963C16.3672 79.1943 16.6667 80.275 17.2656 81.2385C17.8906 82.2021 18.724 82.6838 19.7656 82.6838ZM60.8969 95.6917C55.6104 95.6917 51.2875 94.3896 47.9281 91.7854C44.5948 89.1552 42.9281 85.1318 42.9281 79.7151V69.4807H57.225V75.3792C57.225 76.6031 57.2901 77.788 57.4203 78.9338C57.5766 80.0797 57.9151 81.0172 58.4359 81.7463C58.9568 82.4755 59.7771 82.8401 60.8969 82.8401C62.3812 82.8401 63.3578 82.3453 63.8266 81.3557C64.2953 80.3401 64.5297 79.051 64.5297 77.4885V63.9729C64.5297 62.8531 64.4516 61.7463 64.2953 60.6526C64.1651 59.5588 63.8526 58.6474 63.3578 57.9182C62.863 57.189 62.0687 56.8245 60.975 56.8245C58.3708 56.8245 57.0687 58.7125 57.0687 62.4885H44.4516V25.926H77.225V38.8167H57.4984V48.5042C58.1755 47.6708 59.087 46.9417 60.2328 46.3167C61.4047 45.6656 62.7719 45.3401 64.3344 45.3401C67.4594 45.3401 69.9984 45.939 71.9516 47.137C73.9307 48.3349 75.4411 50.0015 76.4828 52.137C77.5505 54.2724 78.2797 56.7463 78.6703 59.5588C79.087 62.3713 79.2953 65.3922 79.2953 68.6213C79.2953 72.762 79.074 76.4989 78.6312 79.8323C78.2146 83.1396 77.3682 85.9781 76.0922 88.3479C74.8422 90.7177 72.9932 92.5406 70.5453 93.8167C68.1234 95.0667 64.9073 95.6917 60.8969 95.6917Z" fill="#FE390C"/>
<path d="M114.531 78.0276C112.044 78.0276 110.039 77.2528 108.516 75.7034C107.005 74.1539 106.25 71.9859 106.25 69.1995V53.3401C106.25 50.0068 106.908 47.4547 108.223 45.6838C109.551 43.913 111.706 43.0276 114.688 43.0276C116.315 43.0276 117.76 43.3271 119.023 43.926C120.299 44.525 121.302 45.4234 122.031 46.6213C122.76 47.8062 123.125 49.3036 123.125 51.1135V57.051H116.289V51.9729C116.289 50.9443 116.159 50.2542 115.898 49.9026C115.638 49.538 115.234 49.3557 114.688 49.3557C114.049 49.3557 113.62 49.5901 113.398 50.0588C113.177 50.5146 113.066 51.1265 113.066 51.8948V69.1018C113.066 70.0523 113.203 70.7229 113.477 71.1135C113.763 71.5042 114.167 71.6995 114.688 71.6995C115.273 71.6995 115.684 71.4586 115.918 70.9768C116.165 70.495 116.289 69.87 116.289 69.1018V62.9104H123.203V69.4143C123.203 72.4351 122.441 74.6292 120.918 75.9963C119.395 77.3505 117.266 78.0276 114.531 78.0276ZM134.511 78.0276C131.764 78.0276 129.661 77.2008 128.202 75.5471C126.757 73.8805 126.034 71.4781 126.034 68.3401V52.012C126.034 49.0693 126.751 46.8362 128.183 45.3127C129.628 43.7893 131.737 43.0276 134.511 43.0276C137.284 43.0276 139.387 43.7893 140.82 45.3127C142.265 46.8362 142.987 49.0693 142.987 52.012V68.3401C142.987 71.4781 142.258 73.8805 140.8 75.5471C139.355 77.2008 137.258 78.0276 134.511 78.0276ZM134.57 71.6995C135.611 71.6995 136.132 70.6903 136.132 68.6721V51.8948C136.132 50.2021 135.624 49.3557 134.609 49.3557C133.463 49.3557 132.89 50.2216 132.89 51.9534V68.7112C132.89 69.7789 133.02 70.5471 133.28 71.0159C133.541 71.4716 133.971 71.6995 134.57 71.6995ZM146.561 77.7151V43.3401H153.631L156.795 59.8049V43.3401H163.436V77.7151H156.717L153.28 60.5276V77.7151H146.561ZM170.232 77.7151V49.9417H166.15V43.3401H181.189V49.9417H177.107V77.7151H170.232ZM182.458 77.7151L185.778 43.3401H197.438L200.7 77.7151H194.196L193.708 72.1682H189.567L189.137 77.7151H182.458ZM190.055 66.6799H193.18L191.677 49.1995H191.364L190.055 66.6799ZM211.617 78.0276C209.13 78.0276 207.125 77.2528 205.602 75.7034C204.091 74.1539 203.336 71.9859 203.336 69.1995V53.3401C203.336 50.0068 203.993 47.4547 205.309 45.6838C206.637 43.913 208.792 43.0276 211.773 43.0276C213.401 43.0276 214.846 43.3271 216.109 43.926C217.385 44.525 218.388 45.4234 219.117 46.6213C219.846 47.8062 220.211 49.3036 220.211 51.1135V57.051H213.375V51.9729C213.375 50.9443 213.245 50.2542 212.984 49.9026C212.724 49.538 212.32 49.3557 211.773 49.3557C211.135 49.3557 210.706 49.5901 210.484 50.0588C210.263 50.5146 210.152 51.1265 210.152 51.8948V69.1018C210.152 70.0523 210.289 70.7229 210.562 71.1135C210.849 71.5042 211.253 71.6995 211.773 71.6995C212.359 71.6995 212.77 71.4586 213.004 70.9768C213.251 70.495 213.375 69.87 213.375 69.1018V62.9104H220.289V69.4143C220.289 72.4351 219.527 74.6292 218.004 75.9963C216.48 77.3505 214.352 78.0276 211.617 78.0276ZM226.343 77.7151V49.9417H222.261V43.3401H237.3V49.9417H233.218V77.7151H226.343Z" fill="white"/>
</svg>
