<svg width="211" height="47" viewBox="0 0 211 47" fill="none" xmlns="http://www.w3.org/2000/svg">
<path d="M16.9394 14.7151C18.2804 14.7151 19.5704 15.2451 20.5194 16.1961C21.4694 17.1451 22.0004 18.4251 22.0004 19.7651V27.6651C22.0004 30.4551 19.7304 32.7151 16.9394 32.7151H7.06037C4.26937 32.7151 2.00037 30.4551 2.00037 27.6651V19.7651C2.00037 16.9751 4.25937 14.7151 7.06037 14.7151H16.9394ZM18.0704 19.9151C17.8604 19.9041 17.6604 19.9751 17.5094 20.1151L13.0004 23.7151C12.4204 24.1961 11.5894 24.1961 11.0004 23.7151L6.50037 20.1151C6.18937 19.8851 5.75937 19.9151 5.50037 20.1851C5.23037 20.4551 5.20037 20.8851 5.42937 21.1851L5.56037 21.3151L10.1104 24.8651C10.6704 25.3051 11.3494 25.5451 12.0604 25.5451C12.7694 25.5451 13.4604 25.3051 14.0194 24.8651L18.5304 21.2551L18.6104 21.1751C18.8494 20.8851 18.8494 20.4651 18.5994 20.1751C18.4604 20.0261 18.2694 19.9351 18.0704 19.9151Z" fill="#FE390C"/>
<path d="M43.136 10.3471H48.896V11.7071H43.136V10.3471ZM43.28 15.3231H49.808V16.7151H41.68V5.51509H49.584V6.90709H43.28V15.3231ZM62.4628 8.15509C63.1454 8.15509 63.7481 8.28842 64.2708 8.55509C64.7934 8.82175 65.1988 9.22709 65.4868 9.77109C65.7854 10.3151 65.9348 11.0031 65.9348 11.8351V16.7151H64.3988V12.0111C64.3988 11.1898 64.2068 10.5711 63.8228 10.1551C63.4388 9.73909 62.9001 9.53109 62.2068 9.53109C61.6948 9.53109 61.2468 9.63775 60.8628 9.85109C60.4788 10.0644 60.1801 10.3791 59.9668 10.7951C59.7641 11.2111 59.6628 11.7284 59.6628 12.3471V16.7151H58.1268V12.0111C58.1268 11.1898 57.9348 10.5711 57.5508 10.1551C57.1774 9.73909 56.6388 9.53109 55.9348 9.53109C55.4334 9.53109 54.9908 9.63775 54.6068 9.85109C54.2228 10.0644 53.9241 10.3791 53.7108 10.7951C53.4974 11.2111 53.3908 11.7284 53.3908 12.3471V16.7151H51.8548V8.23509H53.3268V10.4911L53.0868 9.91509C53.3534 9.36042 53.7641 8.92842 54.3188 8.61909C54.8734 8.30975 55.5188 8.15509 56.2548 8.15509C57.0654 8.15509 57.7641 8.35775 58.3508 8.76309C58.9374 9.15775 59.3214 9.76042 59.5028 10.5711L58.8788 10.3151C59.1348 9.66442 59.5828 9.14175 60.2228 8.74709C60.8628 8.35242 61.6094 8.15509 62.4628 8.15509ZM73.705 16.7151V14.9231L73.625 14.5871V11.5311C73.625 10.8804 73.433 10.3791 73.049 10.0271C72.6757 9.66442 72.1103 9.48309 71.353 9.48309C70.8517 9.48309 70.361 9.56842 69.881 9.73909C69.401 9.89909 68.9957 10.1178 68.665 10.3951L68.025 9.24309C68.4623 8.89109 68.985 8.62442 69.593 8.44309C70.2117 8.25109 70.857 8.15509 71.529 8.15509C72.6917 8.15509 73.5877 8.43775 74.217 9.00309C74.8463 9.56842 75.161 10.4324 75.161 11.5951V16.7151H73.705ZM70.921 16.8111C70.2917 16.8111 69.737 16.7044 69.257 16.4911C68.7877 16.2778 68.425 15.9844 68.169 15.6111C67.913 15.2271 67.785 14.7951 67.785 14.3151C67.785 13.8564 67.8917 13.4404 68.105 13.0671C68.329 12.6938 68.6863 12.3951 69.177 12.1711C69.6783 11.9471 70.3503 11.8351 71.193 11.8351H73.881V12.9391H71.257C70.489 12.9391 69.9717 13.0671 69.705 13.3231C69.4383 13.5791 69.305 13.8884 69.305 14.2511C69.305 14.6671 69.4703 15.0031 69.801 15.2591C70.1317 15.5044 70.5903 15.6271 71.177 15.6271C71.753 15.6271 72.2543 15.4991 72.681 15.2431C73.1183 14.9871 73.433 14.6138 73.625 14.1231L73.929 15.1791C73.7263 15.6804 73.369 16.0804 72.857 16.3791C72.345 16.6671 71.6997 16.8111 70.921 16.8111ZM77.6835 16.7151V8.23509H79.2195V16.7151H77.6835ZM78.4515 6.60309C78.1528 6.60309 77.9022 6.50709 77.6995 6.31509C77.5075 6.12309 77.4115 5.88842 77.4115 5.61109C77.4115 5.32309 77.5075 5.08309 77.6995 4.89109C77.9022 4.69909 78.1528 4.60309 78.4515 4.60309C78.7502 4.60309 78.9955 4.69909 79.1875 4.89109C79.3902 5.07242 79.4915 5.30175 79.4915 5.57909C79.4915 5.86709 79.3955 6.11242 79.2035 6.31509C79.0115 6.50709 78.7608 6.60309 78.4515 6.60309ZM81.8323 16.7151V4.84309H83.3683V16.7151H81.8323Z" fill="white"/>
<path d="M41.274 43.7151V36.2951H42.562V38.3111L42.436 37.8071C42.6413 37.2938 42.9867 36.9018 43.472 36.6311C43.9573 36.3604 44.5547 36.2251 45.264 36.2251V37.5271C45.208 37.5178 45.152 37.5131 45.096 37.5131C45.0493 37.5131 45.0027 37.5131 44.956 37.5131C44.2373 37.5131 43.668 37.7278 43.248 38.1571C42.828 38.5864 42.618 39.2071 42.618 40.0191V43.7151H41.274ZM49.7501 43.7991C49.0035 43.7991 48.3408 43.6358 47.7621 43.3091C47.1835 42.9824 46.7261 42.5344 46.3901 41.9651C46.0541 41.3864 45.8861 40.7331 45.8861 40.0051C45.8861 39.2678 46.0541 38.6144 46.3901 38.0451C46.7261 37.4758 47.1835 37.0324 47.7621 36.7151C48.3408 36.3884 49.0035 36.2251 49.7501 36.2251C50.4875 36.2251 51.1455 36.3884 51.7241 36.7151C52.3121 37.0324 52.7695 37.4758 53.0961 38.0451C53.4321 38.6051 53.6001 39.2584 53.6001 40.0051C53.6001 40.7424 53.4321 41.3958 53.0961 41.9651C52.7695 42.5344 52.3121 42.9824 51.7241 43.3091C51.1455 43.6358 50.4875 43.7991 49.7501 43.7991ZM49.7501 42.6231C50.2261 42.6231 50.6508 42.5158 51.0241 42.3011C51.4068 42.0864 51.7055 41.7831 51.9201 41.3911C52.1348 40.9898 52.2421 40.5278 52.2421 40.0051C52.2421 39.4731 52.1348 39.0158 51.9201 38.6331C51.7055 38.2411 51.4068 37.9378 51.0241 37.7231C50.6508 37.5084 50.2261 37.4011 49.7501 37.4011C49.2741 37.4011 48.8495 37.5084 48.4761 37.7231C48.1028 37.9378 47.8041 38.2411 47.5801 38.6331C47.3561 39.0158 47.2441 39.4731 47.2441 40.0051C47.2441 40.5278 47.3561 40.9898 47.5801 41.3911C47.8041 41.7831 48.1028 42.0864 48.4761 42.3011C48.8495 42.5158 49.2741 42.6231 49.7501 42.6231ZM59.1128 43.7991C58.4782 43.7991 57.9042 43.6591 57.3908 43.3791C56.8868 43.0898 56.4855 42.6651 56.1868 42.1051C55.8975 41.5451 55.7528 40.8451 55.7528 40.0051C55.7528 39.1651 55.9022 38.4651 56.2008 37.9051C56.5088 37.3451 56.9148 36.9251 57.4188 36.6451C57.9322 36.3651 58.4968 36.2251 59.1128 36.2251C59.8408 36.2251 60.4848 36.3838 61.0448 36.7011C61.6048 37.0184 62.0482 37.4618 62.3748 38.0311C62.7015 38.5911 62.8648 39.2491 62.8648 40.0051C62.8648 40.7611 62.7015 41.4238 62.3748 41.9931C62.0482 42.5624 61.6048 43.0058 61.0448 43.3231C60.4848 43.6404 59.8408 43.7991 59.1128 43.7991ZM55.1788 43.7151V33.3271H56.5228V38.2691L56.3828 39.9911L56.4668 41.7131V43.7151H55.1788ZM59.0008 42.6231C59.4768 42.6231 59.9015 42.5158 60.2748 42.3011C60.6575 42.0864 60.9562 41.7831 61.1708 41.3911C61.3948 40.9898 61.5068 40.5278 61.5068 40.0051C61.5068 39.4731 61.3948 39.0158 61.1708 38.6331C60.9562 38.2411 60.6575 37.9378 60.2748 37.7231C59.9015 37.5084 59.4768 37.4011 59.0008 37.4011C58.5342 37.4011 58.1095 37.5084 57.7268 37.7231C57.3535 37.9378 57.0548 38.2411 56.8308 38.6331C56.6162 39.0158 56.5088 39.4731 56.5088 40.0051C56.5088 40.5278 56.6162 40.9898 56.8308 41.3911C57.0548 41.7831 57.3535 42.0864 57.7268 42.3011C58.1095 42.5158 58.5342 42.6231 59.0008 42.6231ZM67.7458 43.7991C66.9525 43.7991 66.2525 43.6358 65.6458 43.3091C65.0485 42.9824 64.5818 42.5344 64.2458 41.9651C63.9191 41.3958 63.7558 40.7424 63.7558 40.0051C63.7558 39.2678 63.9145 38.6144 64.2318 38.0451C64.5585 37.4758 65.0018 37.0324 65.5618 36.7151C66.1311 36.3884 66.7705 36.2251 67.4798 36.2251C68.1985 36.2251 68.8331 36.3838 69.3838 36.7011C69.9345 37.0184 70.3638 37.4664 70.6718 38.0451C70.9891 38.6144 71.1478 39.2818 71.1478 40.0471C71.1478 40.1031 71.1431 40.1684 71.1338 40.2431C71.1338 40.3178 71.1291 40.3878 71.1198 40.4531H64.8058V39.4871H70.4198L69.8738 39.8231C69.8831 39.3471 69.7851 38.9224 69.5798 38.5491C69.3745 38.1758 69.0898 37.8864 68.7258 37.6811C68.3711 37.4664 67.9558 37.3591 67.4798 37.3591C67.0131 37.3591 66.5978 37.4664 66.2338 37.6811C65.8698 37.8864 65.5851 38.1804 65.3798 38.5631C65.1745 38.9364 65.0718 39.3658 65.0718 39.8511V40.0751C65.0718 40.5698 65.1838 41.0131 65.4078 41.4051C65.6411 41.7878 65.9631 42.0864 66.3738 42.3011C66.7845 42.5158 67.2558 42.6231 67.7878 42.6231C68.2265 42.6231 68.6231 42.5484 68.9778 42.3991C69.3418 42.2498 69.6591 42.0258 69.9298 41.7271L70.6718 42.5951C70.3358 42.9871 69.9158 43.2858 69.4118 43.4911C68.9171 43.6964 68.3618 43.7991 67.7458 43.7991ZM72.7341 43.7151V36.2951H74.0221V38.3111L73.8961 37.8071C74.1014 37.2938 74.4467 36.9018 74.9321 36.6311C75.4174 36.3604 76.0147 36.2251 76.7241 36.2251V37.5271C76.6681 37.5178 76.6121 37.5131 76.5561 37.5131C76.5094 37.5131 76.4627 37.5131 76.4161 37.5131C75.6974 37.5131 75.1281 37.7278 74.7081 38.1571C74.2881 38.5864 74.0781 39.2071 74.0781 40.0191V43.7151H72.7341ZM80.9493 43.7991C80.2027 43.7991 79.624 43.5984 79.2133 43.1971C78.8027 42.7958 78.5973 42.2218 78.5973 41.4751V34.6711H79.9413V41.4191C79.9413 41.8204 80.0393 42.1284 80.2353 42.3431C80.4407 42.5578 80.73 42.6651 81.1033 42.6651C81.5233 42.6651 81.8733 42.5484 82.1533 42.3151L82.5733 43.2811C82.368 43.4584 82.1207 43.5891 81.8313 43.6731C81.5513 43.7571 81.2573 43.7991 80.9493 43.7991ZM77.3373 37.4011V36.2951H82.0693V37.4011H77.3373ZM84.1142 43.7151V35.6371C84.1142 34.9091 84.3242 34.3304 84.7442 33.9011C85.1736 33.4624 85.7802 33.2431 86.5642 33.2431C86.8536 33.2431 87.1289 33.2804 87.3902 33.3551C87.6609 33.4204 87.8896 33.5278 88.0762 33.6771L87.6702 34.6991C87.5302 34.5871 87.3716 34.5031 87.1942 34.4471C87.0169 34.3818 86.8302 34.3491 86.6342 34.3491C86.2422 34.3491 85.9436 34.4611 85.7382 34.6851C85.5329 34.8998 85.4302 35.2218 85.4302 35.6511V36.6451L85.4582 37.2611V43.7151H84.1142ZM82.8542 37.4011V36.2951H87.5862V37.4011H82.8542ZM91.6424 43.7991C90.8957 43.7991 90.2331 43.6358 89.6544 43.3091C89.0757 42.9824 88.6184 42.5344 88.2824 41.9651C87.9464 41.3864 87.7784 40.7331 87.7784 40.0051C87.7784 39.2678 87.9464 38.6144 88.2824 38.0451C88.6184 37.4758 89.0757 37.0324 89.6544 36.7151C90.2331 36.3884 90.8957 36.2251 91.6424 36.2251C92.3797 36.2251 93.0377 36.3884 93.6164 36.7151C94.2044 37.0324 94.6617 37.4758 94.9884 38.0451C95.3244 38.6051 95.4924 39.2584 95.4924 40.0051C95.4924 40.7424 95.3244 41.3958 94.9884 41.9651C94.6617 42.5344 94.2044 42.9824 93.6164 43.3091C93.0377 43.6358 92.3797 43.7991 91.6424 43.7991ZM91.6424 42.6231C92.1184 42.6231 92.5431 42.5158 92.9164 42.3011C93.2991 42.0864 93.5977 41.7831 93.8124 41.3911C94.0271 40.9898 94.1344 40.5278 94.1344 40.0051C94.1344 39.4731 94.0271 39.0158 93.8124 38.6331C93.5977 38.2411 93.2991 37.9378 92.9164 37.7231C92.5431 37.5084 92.1184 37.4011 91.6424 37.4011C91.1664 37.4011 90.7417 37.5084 90.3684 37.7231C89.9951 37.9378 89.6964 38.2411 89.4724 38.6331C89.2484 39.0158 89.1364 39.4731 89.1364 40.0051C89.1364 40.5278 89.2484 40.9898 89.4724 41.3911C89.6964 41.7831 89.9951 42.0864 90.3684 42.3011C90.7417 42.5158 91.1664 42.6231 91.6424 42.6231ZM95.747 43.7151L98.939 39.5711L98.925 40.2571L95.887 36.2951H97.385L99.709 39.3471H99.135L101.459 36.2951H102.929L99.849 40.2851L99.863 39.5711L103.083 43.7151H101.557L99.107 40.4671L99.653 40.5511L97.245 43.7151H95.747ZM110.11 46.5431C109.14 46.5431 108.253 46.3844 107.45 46.0671C106.648 45.7498 105.957 45.3064 105.378 44.7371C104.8 44.1678 104.352 43.4958 104.034 42.7211C103.717 41.9371 103.558 41.0831 103.558 40.1591C103.558 39.2351 103.717 38.3858 104.034 37.6111C104.352 36.8364 104.8 36.1644 105.378 35.5951C105.966 35.0258 106.666 34.5871 107.478 34.2791C108.29 33.9711 109.186 33.8171 110.166 33.8171C111.128 33.8171 112.005 33.9664 112.798 34.2651C113.592 34.5638 114.278 34.9884 114.856 35.5391C115.444 36.0804 115.897 36.7291 116.214 37.4851C116.532 38.2318 116.69 39.0578 116.69 39.9631C116.69 40.7564 116.592 41.4378 116.396 42.0071C116.2 42.5764 115.916 43.0198 115.542 43.3371C115.178 43.6451 114.73 43.7991 114.198 43.7991C113.676 43.7991 113.256 43.6404 112.938 43.3231C112.63 43.0058 112.476 42.5531 112.476 41.9651V41.0131L112.546 40.1591L112.42 38.5491V36.6871H113.638V41.7271C113.638 42.1004 113.713 42.3618 113.862 42.5111C114.021 42.6604 114.212 42.7351 114.436 42.7351C114.707 42.7351 114.94 42.6278 115.136 42.4131C115.342 42.1984 115.491 41.8858 115.584 41.4751C115.687 41.0551 115.738 40.5558 115.738 39.9771C115.738 39.1931 115.603 38.4838 115.332 37.8491C115.071 37.2051 114.688 36.6498 114.184 36.1831C113.69 35.7164 113.102 35.3618 112.42 35.1191C111.748 34.8671 110.997 34.7411 110.166 34.7411C109.336 34.7411 108.575 34.8764 107.884 35.1471C107.203 35.4084 106.615 35.7818 106.12 36.2671C105.626 36.7431 105.243 37.3124 104.972 37.9751C104.711 38.6378 104.58 39.3658 104.58 40.1591C104.58 40.9618 104.711 41.6991 104.972 42.3711C105.234 43.0338 105.607 43.6031 106.092 44.0791C106.587 44.5644 107.17 44.9378 107.842 45.1991C108.524 45.4698 109.28 45.6051 110.11 45.6051C110.54 45.6051 110.992 45.5538 111.468 45.4511C111.944 45.3578 112.392 45.2038 112.812 44.9891L113.12 45.8851C112.691 46.0998 112.206 46.2631 111.664 46.3751C111.123 46.4871 110.605 46.5431 110.11 46.5431ZM109.858 43.7991C109.196 43.7991 108.608 43.6451 108.094 43.3371C107.581 43.0198 107.175 42.5904 106.876 42.0491C106.578 41.5078 106.428 40.8918 106.428 40.2011C106.428 39.5011 106.578 38.8851 106.876 38.3531C107.175 37.8118 107.581 37.3918 108.094 37.0931C108.608 36.7851 109.196 36.6311 109.858 36.6311C110.502 36.6311 111.067 36.7711 111.552 37.0511C112.038 37.3218 112.416 37.7231 112.686 38.2551C112.966 38.7871 113.106 39.4358 113.106 40.2011C113.106 40.9664 112.971 41.6151 112.7 42.1471C112.43 42.6791 112.052 43.0898 111.566 43.3791C111.081 43.6591 110.512 43.7991 109.858 43.7991ZM110.054 42.7071C110.512 42.7071 110.918 42.6091 111.272 42.4131C111.636 42.2078 111.921 41.9184 112.126 41.5451C112.341 41.1624 112.448 40.7144 112.448 40.2011C112.448 39.6784 112.341 39.2304 112.126 38.8571C111.921 38.4838 111.636 38.1991 111.272 38.0031C110.918 37.8071 110.512 37.7091 110.054 37.7091C109.588 37.7091 109.172 37.8118 108.808 38.0171C108.454 38.2131 108.174 38.4978 107.968 38.8711C107.772 39.2444 107.674 39.6878 107.674 40.2011C107.674 40.7051 107.772 41.1438 107.968 41.5171C108.174 41.8904 108.454 42.1844 108.808 42.3991C109.172 42.6044 109.588 42.7071 110.054 42.7071ZM121.663 43.7991C120.869 43.7991 120.169 43.6358 119.563 43.3091C118.965 42.9824 118.499 42.5344 118.163 41.9651C117.836 41.3958 117.673 40.7424 117.673 40.0051C117.673 39.2678 117.831 38.6144 118.149 38.0451C118.475 37.4758 118.919 37.0324 119.479 36.7151C120.048 36.3884 120.687 36.2251 121.397 36.2251C122.115 36.2251 122.75 36.3838 123.301 36.7011C123.851 37.0184 124.281 37.4664 124.589 38.0451C124.906 38.6144 125.065 39.2818 125.065 40.0471C125.065 40.1031 125.06 40.1684 125.051 40.2431C125.051 40.3178 125.046 40.3878 125.037 40.4531H118.723V39.4871H124.337L123.791 39.8231C123.8 39.3471 123.702 38.9224 123.497 38.5491C123.291 38.1758 123.007 37.8864 122.643 37.6811C122.288 37.4664 121.873 37.3591 121.397 37.3591C120.93 37.3591 120.515 37.4664 120.151 37.6811C119.787 37.8864 119.502 38.1804 119.297 38.5631C119.091 38.9364 118.989 39.3658 118.989 39.8511V40.0751C118.989 40.5698 119.101 41.0131 119.325 41.4051C119.558 41.7878 119.88 42.0864 120.291 42.3011C120.701 42.5158 121.173 42.6231 121.705 42.6231C122.143 42.6231 122.54 42.5484 122.895 42.3991C123.259 42.2498 123.576 42.0258 123.847 41.7271L124.589 42.5951C124.253 42.9871 123.833 43.2858 123.329 43.4911C122.834 43.6964 122.279 43.7991 121.663 43.7991ZM125.368 43.7151L128.56 39.5711L128.546 40.2571L125.508 36.2951H127.006L129.33 39.3471H128.756L131.08 36.2951H132.55L129.47 40.2851L129.484 39.5711L132.704 43.7151H131.178L128.728 40.4671L129.274 40.5511L126.866 43.7151H125.368ZM138.36 43.7151V42.1471L138.29 41.8531V39.1791C138.29 38.6098 138.122 38.1711 137.786 37.8631C137.459 37.5458 136.965 37.3871 136.302 37.3871C135.863 37.3871 135.434 37.4618 135.014 37.6111C134.594 37.7511 134.239 37.9424 133.95 38.1851L133.39 37.1771C133.773 36.8691 134.23 36.6358 134.762 36.4771C135.303 36.3091 135.868 36.2251 136.456 36.2251C137.473 36.2251 138.257 36.4724 138.808 36.9671C139.359 37.4618 139.634 38.2178 139.634 39.2351V43.7151H138.36ZM135.924 43.7991C135.373 43.7991 134.888 43.7058 134.468 43.5191C134.057 43.3324 133.74 43.0758 133.516 42.7491C133.292 42.4131 133.18 42.0351 133.18 41.6151C133.18 41.2138 133.273 40.8498 133.46 40.5231C133.656 40.1964 133.969 39.9351 134.398 39.7391C134.837 39.5431 135.425 39.4451 136.162 39.4451H138.514V40.4111H136.218C135.546 40.4111 135.093 40.5231 134.86 40.7471C134.627 40.9711 134.51 41.2418 134.51 41.5591C134.51 41.9231 134.655 42.2171 134.944 42.4411C135.233 42.6558 135.635 42.7631 136.148 42.7631C136.652 42.7631 137.091 42.6511 137.464 42.4271C137.847 42.2031 138.122 41.8764 138.29 41.4471L138.556 42.3711C138.379 42.8098 138.066 43.1598 137.618 43.4211C137.17 43.6731 136.605 43.7991 135.924 43.7991ZM151.123 36.2251C151.72 36.2251 152.248 36.3418 152.705 36.5751C153.162 36.8084 153.517 37.1631 153.769 37.6391C154.03 38.1151 154.161 38.7171 154.161 39.4451V43.7151H152.817V39.5991C152.817 38.8804 152.649 38.3391 152.313 37.9751C151.977 37.6111 151.506 37.4291 150.899 37.4291C150.451 37.4291 150.059 37.5224 149.723 37.7091C149.387 37.8958 149.126 38.1711 148.939 38.5351C148.762 38.8991 148.673 39.3518 148.673 39.8931V43.7151H147.329V39.5991C147.329 38.8804 147.161 38.3391 146.825 37.9751C146.498 37.6111 146.027 37.4291 145.411 37.4291C144.972 37.4291 144.585 37.5224 144.249 37.7091C143.913 37.8958 143.652 38.1711 143.465 38.5351C143.278 38.8991 143.185 39.3518 143.185 39.8931V43.7151H141.841V36.2951H143.129V38.2691L142.919 37.7651C143.152 37.2798 143.512 36.9018 143.997 36.6311C144.482 36.3604 145.047 36.2251 145.691 36.2251C146.4 36.2251 147.012 36.4024 147.525 36.7571C148.038 37.1024 148.374 37.6298 148.533 38.3391L147.987 38.1151C148.211 37.5458 148.603 37.0884 149.163 36.7431C149.723 36.3978 150.376 36.2251 151.123 36.2251ZM160.288 43.7991C159.672 43.7991 159.107 43.6591 158.594 43.3791C158.09 43.0898 157.684 42.6651 157.376 42.1051C157.077 41.5451 156.928 40.8451 156.928 40.0051C156.928 39.1651 157.073 38.4651 157.362 37.9051C157.661 37.3451 158.062 36.9251 158.566 36.6451C159.079 36.3651 159.653 36.2251 160.288 36.2251C161.016 36.2251 161.66 36.3838 162.22 36.7011C162.78 37.0184 163.223 37.4618 163.55 38.0311C163.877 38.5911 164.04 39.2491 164.04 40.0051C164.04 40.7611 163.877 41.4238 163.55 41.9931C163.223 42.5624 162.78 43.0058 162.22 43.3231C161.66 43.6404 161.016 43.7991 160.288 43.7991ZM156.354 46.4311V36.2951H157.642V38.2971L157.558 40.0191L157.698 41.7411V46.4311H156.354ZM160.176 42.6231C160.652 42.6231 161.077 42.5158 161.45 42.3011C161.833 42.0864 162.131 41.7831 162.346 41.3911C162.57 40.9898 162.682 40.5278 162.682 40.0051C162.682 39.4731 162.57 39.0158 162.346 38.6331C162.131 38.2411 161.833 37.9378 161.45 37.7231C161.077 37.5084 160.652 37.4011 160.176 37.4011C159.709 37.4011 159.285 37.5084 158.902 37.7231C158.529 37.9378 158.23 38.2411 158.006 38.6331C157.791 39.0158 157.684 39.4731 157.684 40.0051C157.684 40.5278 157.791 40.9898 158.006 41.3911C158.23 41.7831 158.529 42.0864 158.902 42.3011C159.285 42.5158 159.709 42.6231 160.176 42.6231ZM165.617 43.7151V33.3271H166.961V43.7151H165.617ZM172.551 43.7991C171.758 43.7991 171.058 43.6358 170.451 43.3091C169.854 42.9824 169.387 42.5344 169.051 41.9651C168.724 41.3958 168.561 40.7424 168.561 40.0051C168.561 39.2678 168.72 38.6144 169.037 38.0451C169.364 37.4758 169.807 37.0324 170.367 36.7151C170.936 36.3884 171.576 36.2251 172.285 36.2251C173.004 36.2251 173.638 36.3838 174.189 36.7011C174.74 37.0184 175.169 37.4664 175.477 38.0451C175.794 38.6144 175.953 39.2818 175.953 40.0471C175.953 40.1031 175.948 40.1684 175.939 40.2431C175.939 40.3178 175.934 40.3878 175.925 40.4531H169.611V39.4871H175.225L174.679 39.8231C174.688 39.3471 174.59 38.9224 174.385 38.5491C174.18 38.1758 173.895 37.8864 173.531 37.6811C173.176 37.4664 172.761 37.3591 172.285 37.3591C171.818 37.3591 171.403 37.4664 171.039 37.6811C170.675 37.8864 170.39 38.1804 170.185 38.5631C169.98 38.9364 169.877 39.3658 169.877 39.8511V40.0751C169.877 40.5698 169.989 41.0131 170.213 41.4051C170.446 41.7878 170.768 42.0864 171.179 42.3011C171.59 42.5158 172.061 42.6231 172.593 42.6231C173.032 42.6231 173.428 42.5484 173.783 42.3991C174.147 42.2498 174.464 42.0258 174.735 41.7271L175.477 42.5951C175.141 42.9871 174.721 43.2858 174.217 43.4911C173.722 43.6964 173.167 43.7991 172.551 43.7991ZM177.861 43.7991C177.6 43.7991 177.376 43.7104 177.189 43.5331C177.003 43.3464 176.909 43.1131 176.909 42.8331C176.909 42.5531 177.003 42.3244 177.189 42.1471C177.376 41.9698 177.6 41.8811 177.861 41.8811C178.113 41.8811 178.328 41.9698 178.505 42.1471C178.692 42.3244 178.785 42.5531 178.785 42.8331C178.785 43.1131 178.692 43.3464 178.505 43.5331C178.328 43.7104 178.113 43.7991 177.861 43.7991ZM183.501 43.7991C182.745 43.7991 182.069 43.6358 181.471 43.3091C180.883 42.9824 180.421 42.5344 180.085 41.9651C179.749 41.3958 179.581 40.7424 179.581 40.0051C179.581 39.2678 179.749 38.6144 180.085 38.0451C180.421 37.4758 180.883 37.0324 181.471 36.7151C182.069 36.3884 182.745 36.2251 183.501 36.2251C184.173 36.2251 184.771 36.3604 185.293 36.6311C185.825 36.8924 186.236 37.2844 186.525 37.8071L185.503 38.4651C185.261 38.1011 184.962 37.8351 184.607 37.6671C184.262 37.4898 183.889 37.4011 183.487 37.4011C183.002 37.4011 182.568 37.5084 182.185 37.7231C181.803 37.9378 181.499 38.2411 181.275 38.6331C181.051 39.0158 180.939 39.4731 180.939 40.0051C180.939 40.5371 181.051 40.9991 181.275 41.3911C181.499 41.7831 181.803 42.0864 182.185 42.3011C182.568 42.5158 183.002 42.6231 183.487 42.6231C183.889 42.6231 184.262 42.5391 184.607 42.3711C184.962 42.1938 185.261 41.9231 185.503 41.5591L186.525 42.2031C186.236 42.7164 185.825 43.1131 185.293 43.3931C184.771 43.6638 184.173 43.7991 183.501 43.7991ZM191.054 43.7991C190.307 43.7991 189.645 43.6358 189.066 43.3091C188.487 42.9824 188.03 42.5344 187.694 41.9651C187.358 41.3864 187.19 40.7331 187.19 40.0051C187.19 39.2678 187.358 38.6144 187.694 38.0451C188.03 37.4758 188.487 37.0324 189.066 36.7151C189.645 36.3884 190.307 36.2251 191.054 36.2251C191.791 36.2251 192.449 36.3884 193.028 36.7151C193.616 37.0324 194.073 37.4758 194.4 38.0451C194.736 38.6051 194.904 39.2584 194.904 40.0051C194.904 40.7424 194.736 41.3958 194.4 41.9651C194.073 42.5344 193.616 42.9824 193.028 43.3091C192.449 43.6358 191.791 43.7991 191.054 43.7991ZM191.054 42.6231C191.53 42.6231 191.955 42.5158 192.328 42.3011C192.711 42.0864 193.009 41.7831 193.224 41.3911C193.439 40.9898 193.546 40.5278 193.546 40.0051C193.546 39.4731 193.439 39.0158 193.224 38.6331C193.009 38.2411 192.711 37.9378 192.328 37.7231C191.955 37.5084 191.53 37.4011 191.054 37.4011C190.578 37.4011 190.153 37.5084 189.78 37.7231C189.407 37.9378 189.108 38.2411 188.884 38.6331C188.66 39.0158 188.548 39.4731 188.548 40.0051C188.548 40.5278 188.66 40.9898 188.884 41.3911C189.108 41.7831 189.407 42.0864 189.78 42.3011C190.153 42.5158 190.578 42.6231 191.054 42.6231ZM205.765 36.2251C206.362 36.2251 206.889 36.3418 207.347 36.5751C207.804 36.8084 208.159 37.1631 208.411 37.6391C208.672 38.1151 208.803 38.7171 208.803 39.4451V43.7151H207.459V39.5991C207.459 38.8804 207.291 38.3391 206.955 37.9751C206.619 37.6111 206.147 37.4291 205.541 37.4291C205.093 37.4291 204.701 37.5224 204.365 37.7091C204.029 37.8958 203.767 38.1711 203.581 38.5351C203.403 38.8991 203.315 39.3518 203.315 39.8931V43.7151H201.971V39.5991C201.971 38.8804 201.803 38.3391 201.467 37.9751C201.14 37.6111 200.669 37.4291 200.053 37.4291C199.614 37.4291 199.227 37.5224 198.891 37.7091C198.555 37.8958 198.293 38.1711 198.107 38.5351C197.92 38.8991 197.827 39.3518 197.827 39.8931V43.7151H196.483V36.2951H197.771V38.2691L197.561 37.7651C197.794 37.2798 198.153 36.9018 198.639 36.6311C199.124 36.3604 199.689 36.2251 200.333 36.2251C201.042 36.2251 201.653 36.4024 202.167 36.7571C202.68 37.1024 203.016 37.6298 203.175 38.3391L202.629 38.1151C202.853 37.5458 203.245 37.0884 203.805 36.7431C204.365 36.3978 205.018 36.2251 205.765 36.2251Z" fill="#A9A9AA"/>
</svg>
