<svg width="287" height="118" viewBox="0 0 287 118" fill="none" xmlns="http://www.w3.org/2000/svg">
<path d="M19.7656 92.6431C13.9583 92.6431 9.46615 91.0155 6.28906 87.7603C3.13802 84.505 1.5625 79.8175 1.5625 73.6978V42.6821C1.5625 36.2238 3.0599 31.2759 6.05469 27.8384C9.07552 24.3748 13.6458 22.6431 19.7656 22.6431C25.9115 22.6431 30.4818 24.3748 33.4766 27.8384C36.4714 31.2759 37.9688 36.2238 37.9688 42.6821V73.6978C37.9688 79.8175 36.3932 84.505 33.2422 87.7603C30.0911 91.0155 25.599 92.6431 19.7656 92.6431ZM19.7656 79.9868C20.8333 79.9868 21.6667 79.505 22.2656 78.5415C22.8646 77.578 23.1641 76.4972 23.1641 75.2993V41.354C23.1641 39.7394 22.9818 38.3332 22.6172 37.1353C22.2786 35.9113 21.3281 35.2993 19.7656 35.2993C18.2031 35.2993 17.2396 35.9113 16.875 37.1353C16.5365 38.3332 16.3672 39.7394 16.3672 41.354V75.2993C16.3672 76.4972 16.6667 77.578 17.2656 78.5415C17.8906 79.505 18.724 79.9868 19.7656 79.9868ZM43.5531 92.0181V88.7368C43.5531 85.3254 44.074 82.2655 45.1156 79.5571C46.1833 76.8228 47.5505 74.2967 49.2172 71.979C50.8839 69.6353 52.6417 67.3436 54.4906 65.104C56.2875 62.9165 57.9932 60.6769 59.6078 58.3853C61.2484 56.0675 62.5766 53.5675 63.5922 50.8853C64.6339 48.1769 65.1547 45.1431 65.1547 41.7837C65.1547 40.1691 64.9073 38.7889 64.4125 37.6431C63.9437 36.4712 62.9542 35.8853 61.4437 35.8853C59.1521 35.8853 58.0062 37.9295 58.0062 42.0181V50.4165H43.5531C43.5271 49.8175 43.488 49.1405 43.4359 48.3853C43.4099 47.63 43.3969 46.9009 43.3969 46.1978C43.3969 41.2498 43.9177 37.0571 44.9594 33.6196C46.001 30.1561 47.837 27.5259 50.4672 25.729C53.1234 23.9061 56.8474 22.9946 61.6391 22.9946C67.3422 22.9946 71.7693 24.5962 74.9203 27.7993C78.0974 31.0024 79.6859 35.5728 79.6859 41.5103C79.6859 45.5467 79.1651 49.0884 78.1234 52.1353C77.0818 55.1561 75.7016 57.9165 73.9828 60.4165C72.2641 62.8905 70.376 65.3644 68.3187 67.8384C66.8604 69.5832 65.4411 71.367 64.0609 73.1899C62.7068 75.0129 61.5089 76.966 60.4672 79.0493H79.2172V92.0181H43.5531Z" fill="#FE390C"/>
<path d="M106.523 75.0247V40.6497H116.992L119.883 61.6067L122.754 40.6497H133.32V75.0247H127.031V50.259L123.086 75.0247H116.914L112.734 50.259V75.0247H106.523ZM141.327 75.0247V63.7161L135.839 40.6497H142.655L144.57 52.2903L146.484 40.6497H153.28L147.812 63.7161V75.0247H141.327ZM174.158 75.3372C171.02 75.3372 168.754 74.5559 167.361 72.9934C165.981 71.4309 165.291 68.9439 165.291 65.5325V62.1731H172.088V66.47C172.088 67.2642 172.205 67.8892 172.439 68.345C172.686 68.7877 173.11 69.009 173.709 69.009C174.334 69.009 174.763 68.8267 174.998 68.4622C175.245 68.0976 175.369 67.4986 175.369 66.6653C175.369 65.6106 175.265 64.7317 175.056 64.0286C174.848 63.3124 174.483 62.6353 173.963 61.9973C173.455 61.3463 172.745 60.5911 171.834 59.7317L168.748 56.802C166.443 54.6275 165.291 52.1405 165.291 49.3411C165.291 46.4114 165.968 44.1783 167.322 42.6418C168.689 41.1054 170.662 40.3372 173.24 40.3372C176.391 40.3372 178.624 41.177 179.939 42.8567C181.267 44.5364 181.931 47.0885 181.931 50.5129H174.939V48.1497C174.939 47.6809 174.802 47.3163 174.529 47.0559C174.268 46.7955 173.91 46.6653 173.455 46.6653C172.908 46.6653 172.504 46.8215 172.244 47.134C171.996 47.4335 171.873 47.8241 171.873 48.3059C171.873 48.7877 172.003 49.3085 172.263 49.8684C172.524 50.4283 173.038 51.0728 173.806 51.802L177.771 55.6106C178.565 56.3658 179.295 57.1666 179.959 58.0129C180.623 58.8463 181.157 59.8228 181.56 60.9426C181.964 62.0494 182.166 63.4036 182.166 65.0051C182.166 68.2343 181.567 70.7668 180.369 72.6028C179.184 74.4257 177.114 75.3372 174.158 75.3372ZM185.27 75.0247V40.6497H199.02V47.2903H192.262V53.9895H198.747V60.4543H192.262V68.3254H199.47V75.0247H185.27ZM202.555 75.0247V40.6497H213.102C214.859 40.6497 216.188 41.0533 217.086 41.8606C217.984 42.6549 218.583 43.7747 218.883 45.22C219.195 46.6523 219.352 48.3385 219.352 50.2786C219.352 52.1536 219.111 53.651 218.629 54.7708C218.16 55.8905 217.268 56.6653 215.953 57.095C217.034 57.3163 217.789 57.8567 218.219 58.7161C218.661 59.5624 218.883 60.6627 218.883 62.0168V75.0247H212.105V61.5676C212.105 60.565 211.897 59.9465 211.48 59.7122C211.077 59.4648 210.419 59.3411 209.508 59.3411V75.0247H202.555ZM209.547 53.384H211.207C212.158 53.384 212.633 52.3489 212.633 50.2786C212.633 48.9374 212.529 48.0585 212.32 47.6418C212.112 47.2252 211.721 47.0168 211.148 47.0168H209.547V53.384ZM225.581 75.0247L221.343 40.6301H227.886L230.405 64.0286L232.652 40.6301H239.195L234.956 75.0247H225.581ZM241.694 75.0247V40.6497H248.334V75.0247H241.694ZM259.877 75.3372C257.39 75.3372 255.384 74.5624 253.861 73.0129C252.351 71.4635 251.595 69.2955 251.595 66.509V50.6497C251.595 47.3163 252.253 44.7642 253.568 42.9934C254.896 41.2226 257.051 40.3372 260.033 40.3372C261.66 40.3372 263.106 40.6366 264.369 41.2356C265.645 41.8346 266.647 42.733 267.377 43.9309C268.106 45.1158 268.47 46.6132 268.47 48.4231V54.3606H261.634V49.2825C261.634 48.2538 261.504 47.5637 261.244 47.2122C260.983 46.8476 260.58 46.6653 260.033 46.6653C259.395 46.6653 258.965 46.8997 258.744 47.3684C258.522 47.8241 258.412 48.4361 258.412 49.2043V66.4114C258.412 67.3619 258.548 68.0325 258.822 68.4231C259.108 68.8137 259.512 69.009 260.033 69.009C260.619 69.009 261.029 68.7681 261.263 68.2864C261.511 67.8046 261.634 67.1796 261.634 66.4114V60.22H268.548V66.7239C268.548 69.7447 267.787 71.9387 266.263 73.3059C264.74 74.6601 262.611 75.3372 259.877 75.3372ZM271.653 75.0247V40.6497H285.403V47.2903H278.645V53.9895H285.13V60.4543H278.645V68.3254H285.852V75.0247H271.653Z" fill="#111214"/>
</svg>
