<svg width="90" height="47" viewBox="0 0 90 47" fill="none" xmlns="http://www.w3.org/2000/svg">
<path d="M2.68 16.7151V5.51509H7.048C8.02933 5.51509 8.86667 5.66975 9.56 5.97909C10.2533 6.28842 10.7867 6.73642 11.16 7.32309C11.5333 7.90975 11.72 8.60842 11.72 9.41909C11.72 10.2298 11.5333 10.9284 11.16 11.5151C10.7867 12.0911 10.2533 12.5391 9.56 12.8591C8.86667 13.1684 8.02933 13.3231 7.048 13.3231H3.56L4.28 12.5711V16.7151H2.68ZM4.28 12.7311L3.56 11.9311H7C8.024 11.9311 8.79733 11.7124 9.32 11.2751C9.85333 10.8378 10.12 10.2191 10.12 9.41909C10.12 8.61909 9.85333 8.00042 9.32 7.56309C8.79733 7.12575 8.024 6.90709 7 6.90709H3.56L4.28 6.10709V12.7311ZM18.2109 8.15509C18.9042 8.15509 19.5122 8.28842 20.0349 8.55509C20.5682 8.82175 20.9842 9.22709 21.2829 9.77109C21.5815 10.3151 21.7309 11.0031 21.7309 11.8351V16.7151H20.1949V12.0111C20.1949 11.1898 19.9922 10.5711 19.5869 10.1551C19.1922 9.73909 18.6322 9.53109 17.9069 9.53109C17.3629 9.53109 16.8882 9.63775 16.4829 9.85109C16.0775 10.0644 15.7629 10.3791 15.5389 10.7951C15.3255 11.2111 15.2189 11.7284 15.2189 12.3471V16.7151H13.6829V4.84309H15.2189V10.5231L14.9149 9.91509C15.1922 9.36042 15.6189 8.92842 16.1949 8.61909C16.7709 8.30975 17.4429 8.15509 18.2109 8.15509ZM27.8855 16.8111C27.0322 16.8111 26.2748 16.6244 25.6135 16.2511C24.9522 15.8778 24.4295 15.3658 24.0455 14.7151C23.6615 14.0538 23.4695 13.3071 23.4695 12.4751C23.4695 11.6324 23.6615 10.8858 24.0455 10.2351C24.4295 9.58442 24.9522 9.07775 25.6135 8.71509C26.2748 8.34175 27.0322 8.15509 27.8855 8.15509C28.7282 8.15509 29.4802 8.34175 30.1415 8.71509C30.8135 9.07775 31.3362 9.58442 31.7095 10.2351C32.0935 10.8751 32.2855 11.6218 32.2855 12.4751C32.2855 13.3178 32.0935 14.0644 31.7095 14.7151C31.3362 15.3658 30.8135 15.8778 30.1415 16.2511C29.4802 16.6244 28.7282 16.8111 27.8855 16.8111ZM27.8855 15.4671C28.4295 15.4671 28.9148 15.3444 29.3415 15.0991C29.7788 14.8538 30.1202 14.5071 30.3655 14.0591C30.6108 13.6004 30.7335 13.0724 30.7335 12.4751C30.7335 11.8671 30.6108 11.3444 30.3655 10.9071C30.1202 10.4591 29.7788 10.1124 29.3415 9.86709C28.9148 9.62175 28.4295 9.49909 27.8855 9.49909C27.3415 9.49909 26.8562 9.62175 26.4295 9.86709C26.0028 10.1124 25.6615 10.4591 25.4055 10.9071C25.1495 11.3444 25.0215 11.8671 25.0215 12.4751C25.0215 13.0724 25.1495 13.6004 25.4055 14.0591C25.6615 14.5071 26.0028 14.8538 26.4295 15.0991C26.8562 15.3444 27.3415 15.4671 27.8855 15.4671ZM38.6178 8.15509C39.3111 8.15509 39.9191 8.28842 40.4418 8.55509C40.9751 8.82175 41.3911 9.22709 41.6898 9.77109C41.9884 10.3151 42.1378 11.0031 42.1378 11.8351V16.7151H40.6018V12.0111C40.6018 11.1898 40.3991 10.5711 39.9938 10.1551C39.5991 9.73909 39.0391 9.53109 38.3138 9.53109C37.7698 9.53109 37.2951 9.63775 36.8898 9.85109C36.4844 10.0644 36.1698 10.3791 35.9458 10.7951C35.7324 11.2111 35.6258 11.7284 35.6258 12.3471V16.7151H34.0898V8.23509H35.5618V10.5231L35.3218 9.91509C35.5991 9.36042 36.0258 8.92842 36.6018 8.61909C37.1778 8.30975 37.8498 8.15509 38.6178 8.15509ZM48.4364 16.8111C47.5297 16.8111 46.7297 16.6244 46.0364 16.2511C45.3537 15.8778 44.8204 15.3658 44.4364 14.7151C44.063 14.0644 43.8764 13.3178 43.8764 12.4751C43.8764 11.6324 44.0577 10.8858 44.4204 10.2351C44.7937 9.58442 45.3004 9.07775 45.9404 8.71509C46.591 8.34175 47.3217 8.15509 48.1324 8.15509C48.9537 8.15509 49.679 8.33642 50.3084 8.69909C50.9377 9.06175 51.4284 9.57375 51.7804 10.2351C52.143 10.8858 52.3244 11.6484 52.3244 12.5231C52.3244 12.5871 52.319 12.6618 52.3084 12.7471C52.3084 12.8324 52.303 12.9124 52.2924 12.9871H45.0764V11.8831H51.4924L50.8684 12.2671C50.879 11.7231 50.767 11.2378 50.5324 10.8111C50.2977 10.3844 49.9724 10.0538 49.5564 9.81909C49.151 9.57375 48.6764 9.45109 48.1324 9.45109C47.599 9.45109 47.1244 9.57375 46.7084 9.81909C46.2924 10.0538 45.967 10.3898 45.7324 10.8271C45.4977 11.2538 45.3804 11.7444 45.3804 12.2991V12.5551C45.3804 13.1204 45.5084 13.6271 45.7644 14.0751C46.031 14.5124 46.399 14.8538 46.8684 15.0991C47.3377 15.3444 47.8764 15.4671 48.4844 15.4671C48.9857 15.4671 49.439 15.3818 49.8444 15.2111C50.2604 15.0404 50.623 14.7844 50.9324 14.4431L51.7804 15.4351C51.3964 15.8831 50.9164 16.2244 50.3404 16.4591C49.775 16.6938 49.1404 16.8111 48.4364 16.8111Z" fill="white"/>
<path d="M2.996 46.4311C2.464 45.5818 2.05333 44.6018 1.764 43.4911C1.47467 42.3711 1.33 41.1671 1.33 39.8791C1.33 38.5911 1.47467 37.3871 1.764 36.2671C2.05333 35.1378 2.464 34.1578 2.996 33.3271H4.27C3.71 34.3164 3.29933 35.3524 3.038 36.4351C2.77667 37.5084 2.646 38.6564 2.646 39.8791C2.646 41.1018 2.77667 42.2544 3.038 43.3371C3.29933 44.4104 3.71 45.4418 4.27 46.4311H2.996ZM4.9548 43.7151V42.7631L8.9448 38.9131C9.29946 38.5771 9.5608 38.2831 9.7288 38.0311C9.90613 37.7698 10.0228 37.5318 10.0788 37.3171C10.1441 37.0931 10.1768 36.8784 10.1768 36.6731C10.1768 36.1691 9.99946 35.7724 9.6448 35.4831C9.29013 35.1938 8.77213 35.0491 8.0908 35.0491C7.56813 35.0491 7.0968 35.1378 6.6768 35.3151C6.2568 35.4831 5.8928 35.7491 5.5848 36.1131L4.6328 35.2871C5.00613 34.8111 5.50546 34.4471 6.1308 34.1951C6.76546 33.9338 7.4608 33.8031 8.2168 33.8031C8.89813 33.8031 9.4908 33.9151 9.9948 34.1391C10.4988 34.3538 10.8861 34.6664 11.1568 35.0771C11.4368 35.4878 11.5768 35.9731 11.5768 36.5331C11.5768 36.8504 11.5348 37.1631 11.4508 37.4711C11.3668 37.7791 11.2081 38.1058 10.9748 38.4511C10.7415 38.7964 10.4055 39.1838 9.9668 39.6131L6.4108 43.0431L6.0748 42.4971H11.9968V43.7151H4.9548ZM14.5199 43.7151V34.4751L15.1219 35.1331H12.3079V33.9151H15.9059V43.7151H14.5199ZM20.9475 33.8031C21.8342 33.8031 22.5808 33.9944 23.1875 34.3771C23.8035 34.7598 24.2702 35.3151 24.5875 36.0431C24.9048 36.7618 25.0635 37.6438 25.0635 38.6891C25.0635 39.7998 24.8675 40.7378 24.4755 41.5031C24.0835 42.2684 23.5422 42.8471 22.8515 43.2391C22.1608 43.6311 21.3535 43.8271 20.4295 43.8271C19.9722 43.8271 19.5288 43.7804 19.0995 43.6871C18.6795 43.5938 18.3108 43.4491 17.9935 43.2531L18.5255 42.1611C18.7868 42.3291 19.0762 42.4504 19.3935 42.5251C19.7202 42.5904 20.0608 42.6231 20.4155 42.6231C21.4048 42.6231 22.1935 42.3151 22.7815 41.6991C23.3695 41.0738 23.6635 40.1498 23.6635 38.9271C23.6635 38.7311 23.6542 38.4978 23.6355 38.2271C23.6168 37.9564 23.5748 37.6904 23.5095 37.4291L23.9715 37.9051C23.8408 38.3344 23.6215 38.6984 23.3135 38.9971C23.0148 39.2864 22.6508 39.5058 22.2215 39.6551C21.8015 39.7951 21.3395 39.8651 20.8355 39.8651C20.1915 39.8651 19.6175 39.7438 19.1135 39.5011C18.6095 39.2584 18.2128 38.9178 17.9235 38.4791C17.6342 38.0311 17.4895 37.5038 17.4895 36.8971C17.4895 36.2624 17.6388 35.7164 17.9375 35.2591C18.2455 34.7924 18.6608 34.4331 19.1835 34.1811C19.7155 33.9291 20.3035 33.8031 20.9475 33.8031ZM21.0035 34.9371C20.5835 34.9371 20.2102 35.0164 19.8835 35.1751C19.5568 35.3338 19.3002 35.5531 19.1135 35.8331C18.9362 36.1131 18.8475 36.4491 18.8475 36.8411C18.8475 37.4198 19.0482 37.8818 19.4495 38.2271C19.8508 38.5631 20.3922 38.7311 21.0735 38.7311C21.5215 38.7311 21.9135 38.6471 22.2495 38.4791C22.5948 38.3111 22.8608 38.0824 23.0475 37.7931C23.2435 37.5038 23.3415 37.1818 23.3415 36.8271C23.3415 36.4818 23.2528 36.1691 23.0755 35.8891C22.8982 35.6091 22.6368 35.3804 22.2915 35.2031C21.9462 35.0258 21.5168 34.9371 21.0035 34.9371ZM27.1801 46.4311H25.9061C26.4755 45.4418 26.8908 44.4104 27.1521 43.3371C27.4135 42.2544 27.5441 41.1018 27.5441 39.8791C27.5441 38.6564 27.4135 37.5084 27.1521 36.4351C26.8908 35.3524 26.4755 34.3164 25.9061 33.3271H27.1801C27.7308 34.1578 28.1461 35.1378 28.4261 36.2671C28.7155 37.3871 28.8601 38.5911 28.8601 39.8791C28.8601 41.1671 28.7155 42.3711 28.4261 43.4911C28.1461 44.6018 27.7308 45.5818 27.1801 46.4311ZM37.2244 43.8271C36.5337 43.8271 35.8617 43.7198 35.2084 43.5051C34.5644 43.2904 34.037 43.0011 33.6264 42.6371L34.2704 41.5311C34.597 41.8391 35.0217 42.0911 35.5444 42.2871C36.067 42.4831 36.6224 42.5811 37.2104 42.5811C37.957 42.5811 38.531 42.4224 38.9324 42.1051C39.3337 41.7878 39.5344 41.3631 39.5344 40.8311C39.5344 40.4671 39.4457 40.1498 39.2684 39.8791C39.091 39.6084 38.783 39.4031 38.3444 39.2631C37.915 39.1138 37.3224 39.0391 36.5664 39.0391H34.3404L34.8584 33.9151H40.3884V35.1331H35.3764L36.1044 34.4471L35.6984 38.4931L34.9704 37.8211H36.8604C37.8404 37.8211 38.629 37.9471 39.2264 38.1991C39.8237 38.4511 40.2577 38.8011 40.5284 39.2491C40.799 39.6878 40.9344 40.1964 40.9344 40.7751C40.9344 41.3351 40.799 41.8484 40.5284 42.3151C40.2577 42.7724 39.847 43.1411 39.2964 43.4211C38.755 43.6918 38.0644 43.8271 37.2244 43.8271ZM44.9151 43.8271C44.2244 43.8271 43.5524 43.7198 42.8991 43.5051C42.2551 43.2904 41.7277 43.0011 41.3171 42.6371L41.9611 41.5311C42.2877 41.8391 42.7124 42.0911 43.2351 42.2871C43.7577 42.4831 44.3131 42.5811 44.9011 42.5811C45.6477 42.5811 46.2217 42.4224 46.6231 42.1051C47.0244 41.7878 47.2251 41.3631 47.2251 40.8311C47.2251 40.4671 47.1364 40.1498 46.9591 39.8791C46.7817 39.6084 46.4737 39.4031 46.0351 39.2631C45.6057 39.1138 45.0131 39.0391 44.2571 39.0391H42.0311L42.5491 33.9151H48.0791V35.1331H43.0671L43.7951 34.4471L43.3891 38.4931L42.6611 37.8211H44.5511C45.5311 37.8211 46.3197 37.9471 46.9171 38.1991C47.5144 38.4511 47.9484 38.8011 48.2191 39.2491C48.4897 39.6878 48.6251 40.1964 48.6251 40.7751C48.6251 41.3351 48.4897 41.8484 48.2191 42.3151C47.9484 42.7724 47.5377 43.1411 46.9871 43.4211C46.4457 43.6918 45.7551 43.8271 44.9151 43.8271ZM52.6058 43.8271C51.9151 43.8271 51.2431 43.7198 50.5898 43.5051C49.9458 43.2904 49.4184 43.0011 49.0078 42.6371L49.6518 41.5311C49.9784 41.8391 50.4031 42.0911 50.9258 42.2871C51.4484 42.4831 52.0038 42.5811 52.5918 42.5811C53.3384 42.5811 53.9124 42.4224 54.3138 42.1051C54.7151 41.7878 54.9158 41.3631 54.9158 40.8311C54.9158 40.4671 54.8271 40.1498 54.6498 39.8791C54.4724 39.6084 54.1644 39.4031 53.7258 39.2631C53.2964 39.1138 52.7038 39.0391 51.9478 39.0391H49.7218L50.2398 33.9151H55.7698V35.1331H50.7578L51.4858 34.4471L51.0798 38.4931L50.3518 37.8211H52.2418C53.2218 37.8211 54.0104 37.9471 54.6078 38.1991C55.2051 38.4511 55.6391 38.8011 55.9098 39.2491C56.1804 39.6878 56.3158 40.1964 56.3158 40.7751C56.3158 41.3351 56.1804 41.8484 55.9098 42.3151C55.6391 42.7724 55.2284 43.1411 54.6778 43.4211C54.1364 43.6918 53.4458 43.8271 52.6058 43.8271ZM57.3268 40.4531V39.2911H61.0928V40.4531H57.3268ZM66.3799 43.8271C65.6146 43.8271 64.9286 43.6311 64.3219 43.2391C63.7246 42.8471 63.2486 42.2778 62.8939 41.5311C62.5486 40.7844 62.3759 39.8791 62.3759 38.8151C62.3759 37.7511 62.5486 36.8458 62.8939 36.0991C63.2486 35.3524 63.7246 34.7831 64.3219 34.3911C64.9286 33.9991 65.6146 33.8031 66.3799 33.8031C67.1359 33.8031 67.8172 33.9991 68.4239 34.3911C69.0306 34.7831 69.5066 35.3524 69.8519 36.0991C70.1972 36.8458 70.3699 37.7511 70.3699 38.8151C70.3699 39.8791 70.1972 40.7844 69.8519 41.5311C69.5066 42.2778 69.0306 42.8471 68.4239 43.2391C67.8172 43.6311 67.1359 43.8271 66.3799 43.8271ZM66.3799 42.5811C66.8932 42.5811 67.3412 42.4411 67.7239 42.1611C68.1159 41.8811 68.4192 41.4611 68.6339 40.9011C68.8579 40.3411 68.9699 39.6458 68.9699 38.8151C68.9699 37.9844 68.8579 37.2891 68.6339 36.7291C68.4192 36.1691 68.1159 35.7491 67.7239 35.4691C67.3412 35.1891 66.8932 35.0491 66.3799 35.0491C65.8666 35.0491 65.4139 35.1891 65.0219 35.4691C64.6299 35.7491 64.3219 36.1691 64.0979 36.7291C63.8832 37.2891 63.7759 37.9844 63.7759 38.8151C63.7759 39.6458 63.8832 40.3411 64.0979 40.9011C64.3219 41.4611 64.6299 41.8811 65.0219 42.1611C65.4139 42.4411 65.8666 42.5811 66.3799 42.5811ZM73.0858 43.7151V34.4751L73.6878 35.1331H70.8738V33.9151H74.4718V43.7151H73.0858ZM77.9874 43.7151V34.4751L78.5894 35.1331H75.7754V33.9151H79.3734V43.7151H77.9874ZM81.0971 41.3071V40.3271L86.1091 33.9151H87.6211L82.6511 40.3271L81.9371 40.1031H89.7631V41.3071H81.0971ZM86.5431 43.7151V41.3071L86.5851 40.1031V37.9751H87.9011V43.7151H86.5431Z" fill="#A9A9AA"/>
</svg>
