<svg width="265" height="120" viewBox="0 0 265 120" fill="none" xmlns="http://www.w3.org/2000/svg">
<path d="M19.7656 94.625C13.9583 94.625 9.46615 92.9974 6.28906 89.7422C3.13802 86.487 1.5625 81.7995 1.5625 75.6797V44.6641C1.5625 38.2057 3.0599 33.2578 6.05469 29.8203C9.07552 26.3568 13.6458 24.625 19.7656 24.625C25.9115 24.625 30.4818 26.3568 33.4766 29.8203C36.4714 33.2578 37.9688 38.2057 37.9688 44.6641V75.6797C37.9688 81.7995 36.3932 86.487 33.2422 89.7422C30.0911 92.9974 25.599 94.625 19.7656 94.625ZM19.7656 81.9688C20.8333 81.9688 21.6667 81.487 22.2656 80.5234C22.8646 79.5599 23.1641 78.4792 23.1641 77.2812V43.3359C23.1641 41.7214 22.9818 40.3151 22.6172 39.1172C22.2786 37.8932 21.3281 37.2812 19.7656 37.2812C18.2031 37.2812 17.2396 37.8932 16.875 39.1172C16.5365 40.3151 16.3672 41.7214 16.3672 43.3359V77.2812C16.3672 78.4792 16.6667 79.5599 17.2656 80.5234C17.8906 81.487 18.724 81.9688 19.7656 81.9688ZM60.0375 94.7812C53.9698 94.7812 49.5557 93.1797 46.7953 89.9766C44.0349 86.7734 42.6547 81.9427 42.6547 75.4844V68.2969H56.7562V75.5234C56.7562 77.3464 56.9776 78.8958 57.4203 80.1719C57.8891 81.4219 58.9177 82.0469 60.5062 82.0469C62.1208 82.0469 63.1495 81.3698 63.5922 80.0156C64.0349 78.6354 64.2562 76.3958 64.2562 73.2969V71.5781C64.2562 69.2083 63.8526 67.138 63.0453 65.3672C62.2641 63.5964 60.7146 62.7109 58.3969 62.7109C58.1104 62.7109 57.85 62.724 57.6156 62.75C57.4073 62.75 57.225 62.763 57.0687 62.7891V50.4453C59.4385 50.4453 61.2484 49.9245 62.4984 48.8828C63.7484 47.8151 64.3734 46.0443 64.3734 43.5703C64.3734 39.6901 63.2536 37.75 61.0141 37.75C59.5557 37.75 58.5661 38.3229 58.0453 39.4688C57.5505 40.5885 57.3031 42.0208 57.3031 43.7656V45.8359H43.0844C43.0583 45.5234 43.0323 45.1458 43.0062 44.7031C43.0062 44.2604 43.0062 43.8307 43.0062 43.4141C43.0062 37.112 44.4776 32.4896 47.4203 29.5469C50.363 26.6042 54.8682 25.1328 60.9359 25.1328C72.6547 25.1328 78.5141 31.2266 78.5141 43.4141C78.5141 46.7995 78.0583 49.599 77.1469 51.8125C76.2354 54 74.5427 55.5365 72.0687 56.4219C74.0219 57.3594 75.4672 58.5573 76.4047 60.0156C77.3422 61.474 77.9542 63.2839 78.2406 65.4453C78.5271 67.6068 78.6703 70.224 78.6703 73.2969C78.6703 80.1719 77.225 85.4714 74.3344 89.1953C71.4698 92.9193 66.7042 94.7812 60.0375 94.7812Z" fill="#FE390C"/>
<path d="M106.523 77V42.625H115.605C117.507 42.625 119.01 43.0482 120.117 43.8945C121.237 44.7409 122.038 45.9453 122.52 47.5078C123.001 49.0703 123.242 50.9323 123.242 53.0938C123.242 55.1771 123.04 56.9935 122.637 58.543C122.233 60.0794 121.51 61.2708 120.469 62.1172C119.44 62.9635 117.975 63.3867 116.074 63.3867H113.281V77H106.523ZM113.281 57.2148H113.672C114.948 57.2148 115.729 56.8568 116.016 56.1406C116.302 55.4245 116.445 54.3698 116.445 52.9766C116.445 51.6745 116.302 50.6719 116.016 49.9688C115.742 49.2526 115.085 48.8945 114.043 48.8945H113.281V57.2148ZM134.433 77.3125C131.685 77.3125 129.583 76.4857 128.124 74.832C126.679 73.1654 125.956 70.763 125.956 67.625V51.2969C125.956 48.3542 126.672 46.1211 128.105 44.5977C129.55 43.0742 131.659 42.3125 134.433 42.3125C137.206 42.3125 139.309 43.0742 140.741 44.5977C142.187 46.1211 142.909 48.3542 142.909 51.2969V67.625C142.909 70.763 142.18 73.1654 140.722 74.832C139.277 76.4857 137.18 77.3125 134.433 77.3125ZM134.491 70.9844C135.533 70.9844 136.054 69.9753 136.054 67.957V51.1797C136.054 49.487 135.546 48.6406 134.53 48.6406C133.385 48.6406 132.812 49.5065 132.812 51.2383V67.9961C132.812 69.0638 132.942 69.832 133.202 70.3008C133.463 70.7565 133.892 70.9844 134.491 70.9844ZM146.483 77V42.625H157.03C158.787 42.625 160.116 43.0286 161.014 43.8359C161.912 44.6302 162.511 45.75 162.811 47.1953C163.123 48.6276 163.28 50.3138 163.28 52.2539C163.28 54.1289 163.039 55.6263 162.557 56.7461C162.088 57.8659 161.196 58.6406 159.881 59.0703C160.962 59.2917 161.717 59.832 162.147 60.6914C162.59 61.5378 162.811 62.638 162.811 63.9922V77H156.034V63.543C156.034 62.5404 155.825 61.9219 155.409 61.6875C155.005 61.4401 154.347 61.3164 153.436 61.3164V77H146.483ZM153.475 55.3594H155.135C156.086 55.3594 156.561 54.3242 156.561 52.2539C156.561 50.9128 156.457 50.0339 156.248 49.6172C156.04 49.2005 155.649 48.9922 155.077 48.9922H153.475V55.3594ZM169.295 77V49.2266H165.213V42.625H180.252V49.2266H176.17V77H169.295ZM182.966 77V42.625H196.716V49.3242H189.88V54.793H196.364V61.4141H189.88V77H182.966ZM207.945 77.3125C205.198 77.3125 203.095 76.4857 201.637 74.832C200.191 73.1654 199.469 70.763 199.469 67.625V51.2969C199.469 48.3542 200.185 46.1211 201.617 44.5977C203.062 43.0742 205.172 42.3125 207.945 42.3125C210.719 42.3125 212.822 43.0742 214.254 44.5977C215.699 46.1211 216.422 48.3542 216.422 51.2969V67.625C216.422 70.763 215.693 73.1654 214.234 74.832C212.789 76.4857 210.693 77.3125 207.945 77.3125ZM208.004 70.9844C209.046 70.9844 209.566 69.9753 209.566 67.957V51.1797C209.566 49.487 209.059 48.6406 208.043 48.6406C206.897 48.6406 206.324 49.5065 206.324 51.2383V67.9961C206.324 69.0638 206.454 69.832 206.715 70.3008C206.975 70.7565 207.405 70.9844 208.004 70.9844ZM219.995 77V42.625H226.87V71.1406H233.941V77H219.995ZM236.381 77V42.625H243.022V77H236.381ZM254.759 77.3125C252.012 77.3125 249.909 76.4857 248.451 74.832C247.005 73.1654 246.283 70.763 246.283 67.625V51.2969C246.283 48.3542 246.999 46.1211 248.431 44.5977C249.877 43.0742 251.986 42.3125 254.759 42.3125C257.533 42.3125 259.636 43.0742 261.068 44.5977C262.513 46.1211 263.236 48.3542 263.236 51.2969V67.625C263.236 70.763 262.507 73.1654 261.048 74.832C259.603 76.4857 257.507 77.3125 254.759 77.3125ZM254.818 70.9844C255.86 70.9844 256.38 69.9753 256.38 67.957V51.1797C256.38 49.487 255.873 48.6406 254.857 48.6406C253.711 48.6406 253.138 49.5065 253.138 51.2383V67.9961C253.138 69.0638 253.268 69.832 253.529 70.3008C253.789 70.7565 254.219 70.9844 254.818 70.9844Z" fill="#111214"/>
</svg>
