<svg width="655" height="117" viewBox="0 0 655 117" fill="none" xmlns="http://www.w3.org/2000/svg">
<path d="M19.7656 92.625C13.9583 92.625 9.46615 90.9974 6.28906 87.7422C3.13802 84.487 1.5625 79.7995 1.5625 73.6797V42.6641C1.5625 36.2057 3.0599 31.2578 6.05469 27.8203C9.07552 24.3568 13.6458 22.625 19.7656 22.625C25.9115 22.625 30.4818 24.3568 33.4766 27.8203C36.4714 31.2578 37.9688 36.2057 37.9688 42.6641V73.6797C37.9688 79.7995 36.3932 84.487 33.2422 87.7422C30.0911 90.9974 25.599 92.625 19.7656 92.625ZM19.7656 79.9688C20.8333 79.9688 21.6667 79.487 22.2656 78.5234C22.8646 77.5599 23.1641 76.4792 23.1641 75.2812V41.3359C23.1641 39.7214 22.9818 38.3151 22.6172 37.1172C22.2786 35.8932 21.3281 35.2812 19.7656 35.2812C18.2031 35.2812 17.2396 35.8932 16.875 37.1172C16.5365 38.3151 16.3672 39.7214 16.3672 41.3359V75.2812C16.3672 76.4792 16.6667 77.5599 17.2656 78.5234C17.8906 79.487 18.724 79.9688 19.7656 79.9688ZM62.225 92.0391V81.1406H41.8344V70.3984L54.8422 23.2109H76.2484V69.6562H79.9203V81.1406H76.2484V92.0391H62.225ZM54.1 69.6562H62.225V35.0078L54.1 69.6562Z" fill="#FE390C"/>
<path d="M109.473 74.9121V47.1386H105.391V40.5371H120.43V47.1386H116.348V74.9121H109.473ZM123.144 74.9121V40.5371H136.894V47.1777H130.136V53.8769H136.62V60.3418H130.136V68.2129H137.343V74.9121H123.144ZM148.592 75.2246C145.454 75.2246 143.189 74.4433 141.795 72.8808C140.415 71.3183 139.725 68.8313 139.725 65.4199V62.0605H146.522V66.3574C146.522 67.1517 146.639 67.7767 146.873 68.2324C147.121 68.6751 147.544 68.8965 148.143 68.8965C148.768 68.8965 149.198 68.7142 149.432 68.3496C149.679 67.985 149.803 67.386 149.803 66.5527C149.803 65.498 149.699 64.6191 149.491 63.916C149.282 63.1998 148.918 62.5228 148.397 61.8847C147.889 61.2337 147.179 60.4785 146.268 59.6191L143.182 56.6894C140.877 54.5149 139.725 52.028 139.725 49.2285C139.725 46.2988 140.402 44.0657 141.756 42.5293C143.123 40.9928 145.096 40.2246 147.674 40.2246C150.825 40.2246 153.058 41.0644 154.373 42.7441C155.702 44.4238 156.366 46.9759 156.366 50.4004H149.373V48.0371C149.373 47.5683 149.237 47.2037 148.963 46.9433C148.703 46.6829 148.345 46.5527 147.889 46.5527C147.342 46.5527 146.939 46.709 146.678 47.0215C146.431 47.3209 146.307 47.7116 146.307 48.1933C146.307 48.6751 146.437 49.1959 146.698 49.7558C146.958 50.3157 147.472 50.9603 148.241 51.6894L152.205 55.498C153 56.2532 153.729 57.054 154.393 57.9004C155.057 58.7337 155.591 59.7103 155.995 60.83C156.398 61.9368 156.6 63.291 156.6 64.8925C156.6 68.1217 156.001 70.6543 154.803 72.4902C153.618 74.3131 151.548 75.2246 148.592 75.2246ZM162.654 74.9121V47.1386H158.572V40.5371H173.611V47.1386H169.529V74.9121H162.654ZM176.012 74.9121V40.5371H182.653V74.9121H176.012ZM186.188 74.9121V40.5371H196.656L199.547 61.4941L202.418 40.5371H212.984V74.9121H206.695V50.1465L202.75 74.9121H196.578L192.398 50.1465V74.9121H186.188ZM225.034 75.2246C222.287 75.2246 220.184 74.3978 218.726 72.7441C217.28 71.0774 216.558 68.6751 216.558 65.5371V49.209C216.558 46.2662 217.274 44.0332 218.706 42.5097C220.152 40.9863 222.261 40.2246 225.034 40.2246C227.808 40.2246 229.911 40.9863 231.343 42.5097C232.788 44.0332 233.511 46.2662 233.511 49.209V65.5371C233.511 68.6751 232.782 71.0774 231.323 72.7441C229.878 74.3978 227.782 75.2246 225.034 75.2246ZM225.093 68.8965C226.135 68.8965 226.655 67.8873 226.655 65.8691V49.0918C226.655 47.3991 226.148 46.5527 225.132 46.5527C223.986 46.5527 223.413 47.4186 223.413 49.1504V65.9082C223.413 66.9759 223.543 67.7441 223.804 68.2129C224.064 68.6686 224.494 68.8965 225.093 68.8965ZM237.084 74.9121V40.5371H244.155L247.319 57.0019V40.5371H253.959V74.9121H247.241L243.803 57.7246V74.9121H237.084ZM257.494 74.9121V40.5371H264.134V74.9121H257.494ZM266.731 74.9121L270.052 40.5371H281.712L284.973 74.9121H278.47L277.981 69.3652H273.841L273.411 74.9121H266.731ZM274.329 63.8769H277.454L275.95 46.3965H275.637L274.329 63.8769ZM287.883 74.9121V40.5371H294.758V69.0527H301.828V74.9121H287.883Z" fill="#111214"/>
<path d="M604.93 76.042C603.188 76.042 601.84 75.5537 600.887 74.5772C599.941 73.6006 599.469 72.1944 599.469 70.3584V61.0537C599.469 59.1162 599.918 57.6319 600.816 56.6006C601.723 55.5615 603.094 55.042 604.93 55.042C606.773 55.042 608.145 55.5615 609.043 56.6006C609.941 57.6319 610.391 59.1162 610.391 61.0537V70.3584C610.391 72.1944 609.918 73.6006 608.973 74.5772C608.027 75.5537 606.68 76.042 604.93 76.042ZM604.93 72.2451C605.25 72.2451 605.5 72.1006 605.68 71.8115C605.859 71.5225 605.949 71.1983 605.949 70.8389V60.6553C605.949 60.1709 605.895 59.749 605.785 59.3897C605.684 59.0225 605.398 58.8389 604.93 58.8389C604.461 58.8389 604.172 59.0225 604.062 59.3897C603.961 59.749 603.91 60.1709 603.91 60.6553V70.8389C603.91 71.1983 604 71.5225 604.18 71.8115C604.367 72.1006 604.617 72.2451 604.93 72.2451ZM613.707 75.8545V59.9639C613.426 60.2998 613.039 60.5733 612.547 60.7842C612.055 60.9873 611.59 61.0889 611.152 61.0889V57.7959C611.566 57.7334 612.012 57.6006 612.488 57.3975C612.965 57.1865 613.406 56.9014 613.812 56.542C614.227 56.1748 614.543 55.7334 614.762 55.2178H618.078V75.8545H613.707Z" fill="#FE390C"/>
<path d="M619.145 75.8545L623.949 55.1475H628.215L623.398 75.8545H619.145ZM634.461 76.042C632.719 76.042 631.371 75.5537 630.418 74.5772C629.473 73.6006 629 72.1944 629 70.3584V61.0537C629 59.1162 629.449 57.6319 630.348 56.6006C631.254 55.5615 632.625 55.042 634.461 55.042C636.305 55.042 637.676 55.5615 638.574 56.6006C639.473 57.6319 639.922 59.1162 639.922 61.0537V70.3584C639.922 72.1944 639.449 73.6006 638.504 74.5772C637.559 75.5537 636.211 76.042 634.461 76.042ZM634.461 72.2451C634.781 72.2451 635.031 72.1006 635.211 71.8115C635.391 71.5225 635.48 71.1983 635.48 70.8389V60.6553C635.48 60.1709 635.426 59.749 635.316 59.3897C635.215 59.0225 634.93 58.8389 634.461 58.8389C633.992 58.8389 633.703 59.0225 633.594 59.3897C633.492 59.749 633.441 60.1709 633.441 60.6553V70.8389C633.441 71.1983 633.531 71.5225 633.711 71.8115C633.898 72.1006 634.148 72.2451 634.461 72.2451ZM646.062 76.0889C644.242 76.0889 642.918 75.6084 642.09 74.6475C641.262 73.6865 640.848 72.2373 640.848 70.2998V68.1436H645.078V70.3115C645.078 70.8584 645.145 71.3233 645.277 71.7061C645.418 72.0811 645.727 72.2686 646.203 72.2686C646.688 72.2686 646.996 72.0654 647.129 71.6592C647.262 71.2451 647.328 70.5733 647.328 69.6436V69.1279C647.328 68.417 647.207 67.7959 646.965 67.2647C646.73 66.7334 646.266 66.4678 645.57 66.4678C645.484 66.4678 645.406 66.4717 645.336 66.4795C645.273 66.4795 645.219 66.4834 645.172 66.4912V62.7881C645.883 62.7881 646.426 62.6319 646.801 62.3194C647.176 61.999 647.363 61.4678 647.363 60.7256C647.363 59.5615 647.027 58.9795 646.355 58.9795C645.918 58.9795 645.621 59.1514 645.465 59.4951C645.316 59.8311 645.242 60.2608 645.242 60.7842V61.4053H640.977C640.969 61.3115 640.961 61.1983 640.953 61.0654C640.953 60.9326 640.953 60.8037 640.953 60.6787C640.953 58.7881 641.395 57.4014 642.277 56.5186C643.16 55.6358 644.512 55.1944 646.332 55.1944C649.848 55.1944 651.605 57.0225 651.605 60.6787C651.605 61.6944 651.469 62.5342 651.195 63.1983C650.922 63.8545 650.414 64.3154 649.672 64.5811C650.258 64.8623 650.691 65.2217 650.973 65.6592C651.254 66.0967 651.438 66.6397 651.523 67.2881C651.609 67.9365 651.652 68.7217 651.652 69.6436C651.652 71.7061 651.219 73.2959 650.352 74.4131C649.492 75.5303 648.062 76.0889 646.062 76.0889Z" fill="#C4C4C4"/>
</svg>
